TitilliumWeb-ExtraLight.ufo
<glyph name="exclam" format="2">
  <advance width="225"/>
  <unicode hex="0021"/>
  <outline>
    <contour>
      <point x="95" y="214" type="line"/>
      <point x="130" y="214" type="line"/>
      <point x="130" y="700" type="line"/>
      <point x="95" y="700" type="line"/>
    </contour>
    <contour>
      <point x="93" y="0" type="line"/>
      <point x="133" y="0" type="line"/>
      <point x="133" y="80" type="line"/>
      <point x="93" y="80" type="line"/>
    </contour>
  </outline>
</glyph>
<glyph name="numbersign" format="2">
  <advance width="560"/>
  <unicode hex="0023"/>
  <outline>
    <contour>
      <point x="150" y="0" type="line"/>
      <point x="186" y="0" type="line"/>
      <point x="186" y="190" type="line"/>
      <point x="374" y="190" type="line"/>
      <point x="374" y="0" type="line"/>
      <point x="410" y="0" type="line"/>
      <point x="410" y="190" type="line"/>
      <point x="530" y="190" type="line"/>
      <point x="530" y="222" type="line"/>
      <point x="410" y="222" type="line"/>
      <point x="410" y="448" type="line"/>
      <point x="530" y="448" type="line"/>
      <point x="530" y="480" type="line"/>
      <point x="410" y="480" type="line"/>
      <point x="410" y="670" type="line"/>
      <point x="374" y="670" type="line"/>
      <point x="374" y="480" type="line"/>
      <point x="186" y="480" type="line"/>
      <point x="186" y="670" type="line"/>
      <point x="150" y="670" type="line"/>
      <point x="150" y="480" type="line"/>
      <point x="30" y="480" type="line"/>
      <point x="30" y="448" type="line"/>
      <point x="150" y="448" type="line"/>
      <point x="150" y="222" type="line"/>
      <point x="30" y="222" type="line"/>
      <point x="30" y="190" type="line"/>
      <point x="150" y="190" type="line"/>
    </contour>
    <contour>
      <point x="186" y="222" type="line"/>
      <point x="186" y="448" type="line"/>
      <point x="374" y="448" type="line"/>
      <point x="374" y="222" type="line"/>
    </contour>
  </outline>
</glyph>
<glyph name="dollar" format="2">
  <advance width="560"/>
  <unicode hex="0024"/>
  <outline>
    <contour>
      <point x="247" y="-120" type="line"/>
      <point x="304" y="323" type="line"/>
      <point x="270" y="330" type="line"/>
      <point x="212" y="-113" type="line"/>
    </contour>
    <contour>
      <point x="273" y="352" type="line"/>
      <point x="307" y="346" type="line"/>
      <point x="365" y="790" type="line"/>
      <point x="330" y="790" type="line"/>
    </contour>
    <component base="S" xScale="0.941" yScale="0.941" xOffset="27"/>
  </outline>
</glyph>
<glyph name="percent" format="2">
  <advance width="560"/>
  <unicode hex="0025"/>
  <outline>
    <contour>
      <point x="206" y="-9" type="line"/>
      <point x="392" y="660" type="line"/>
      <point x="360" y="669" type="line"/>
      <point x="175" y="-1" type="line"/>
    </contour>
    <contour>
      <point x="141" y="397" type="curve" smooth="yes"/>
      <point x="201" y="397"/>
      <point x="244" y="439"/>
      <point x="244" y="535" type="curve" smooth="yes"/>
      <point x="244" y="631"/>
      <point x="202" y="669"/>
      <point x="141" y="669" type="curve" smooth="yes"/>
      <point x="79" y="669"/>
      <point x="38" y="631"/>
      <point x="38" y="536" type="curve" smooth="yes"/>
      <point x="38" y="439"/>
      <point x="80" y="397"/>
    </contour>
    <contour>
      <point x="141" y="429" type="curve" smooth="yes"/>
      <point x="92" y="429"/>
      <point x="73" y="468"/>
      <point x="73" y="536" type="curve" smooth="yes"/>
      <point x="73" y="603"/>
      <point x="92" y="637"/>
      <point x="141" y="637" type="curve" smooth="yes"/>
      <point x="191" y="637"/>
      <point x="209" y="603"/>
      <point x="209" y="535" type="curve" smooth="yes"/>
      <point x="209" y="467"/>
      <point x="191" y="429"/>
    </contour>
    <contour>
      <point x="420" y="-9" type="curve" smooth="yes"/>
      <point x="480" y="-9"/>
      <point x="523" y="33"/>
      <point x="523" y="129" type="curve" smooth="yes"/>
      <point x="523" y="225"/>
      <point x="481" y="263"/>
      <point x="420" y="263" type="curve" smooth="yes"/>
      <point x="358" y="263"/>
      <point x="317" y="225"/>
      <point x="317" y="130" type="curve" smooth="yes"/>
      <point x="317" y="33"/>
      <point x="359" y="-9"/>
    </contour>
    <contour>
      <point x="420" y="23" type="curve" smooth="yes"/>
      <point x="371" y="23"/>
      <point x="352" y="62"/>
      <point x="352" y="130" type="curve" smooth="yes"/>
      <point x="352" y="197"/>
      <point x="371" y="231"/>
      <point x="420" y="231" type="curve" smooth="yes"/>
      <point x="470" y="231"/>
      <point x="488" y="197"/>
      <point x="488" y="129" type="curve" smooth="yes"/>
      <point x="488" y="61"/>
      <point x="470" y="23"/>
    </contour>
  </outline>
</glyph>
<glyph name="quotesingle" format="2">
  <advance width="187"/>
  <unicode hex="0027"/>
  <outline>
    <contour>
      <point x="76" y="490" type="line"/>
      <point x="109" y="490" type="line"/>
      <point x="114" y="700" type="line"/>
      <point x="74" y="700" type="line"/>
    </contour>
  </outline>
</glyph>
<glyph name="parenleft" format="2">
  <advance width="234"/>
  <unicode hex="0028"/>
  <outline>
    <contour>
      <point x="156" y="-125" type="curve"/>
      <point x="191" y="-125" type="line"/>
      <point x="150" y="-22"/>
      <point x="96" y="165"/>
      <point x="96" y="301" type="curve" smooth="yes"/>
      <point x="96" y="439"/>
      <point x="150" y="638"/>
      <point x="191" y="750" type="curve"/>
      <point x="156" y="750" type="line"/>
      <point x="114" y="643"/>
      <point x="59" y="447"/>
      <point x="59" y="301" type="curve" smooth="yes"/>
      <point x="59" y="155"/>
      <point x="114" y="-28"/>
    </contour>
  </outline>
</glyph>
<glyph name="comma" format="2">
  <advance width="197"/>
  <unicode hex="002C"/>
  <outline>
    <contour>
      <point x="44" y="-123" type="line"/>
      <point x="75" y="-123" type="line"/>
      <point x="126" y="87" type="line"/>
      <point x="86" y="87" type="line"/>
    </contour>
  </outline>
</glyph>
<glyph name="two" format="2">
  <advance width="560"/>
  <unicode hex="0032"/>
  <outline>
    <contour>
      <point x="72" y="0" type="line"/>
      <point x="490" y="0" type="line"/>
      <point x="490" y="32" type="line"/>
      <point x="121" y="32" type="line"/>
      <point x="338" y="261" type="line" smooth="yes"/>
      <point x="419" y="345"/>
      <point x="469" y="403"/>
      <point x="469" y="500" type="curve" smooth="yes"/>
      <point x="469" y="625"/>
      <point x="395" y="669"/>
      <point x="264" y="669" type="curve" smooth="yes"/>
      <point x="196" y="669"/>
      <point x="118" y="654"/>
      <point x="78" y="643" type="curve"/>
      <point x="83" y="609" type="line"/>
      <point x="128" y="620"/>
      <point x="208" y="635"/>
      <point x="263" y="635" type="curve" smooth="yes"/>
      <point x="371" y="635"/>
      <point x="431" y="601"/>
      <point x="431" y="500" type="curve" smooth="yes"/>
      <point x="431" y="413"/>
      <point x="379" y="357"/>
      <point x="299" y="273" type="curve" smooth="yes"/>
      <point x="72" y="31" type="line"/>
    </contour>
  </outline>
</glyph>
<glyph name="three" format="2">
  <advance width="560"/>
  <unicode hex="0033"/>
  <outline>
    <contour>
      <point x="283" y="-9" type="curve" smooth="yes"/>
      <point x="424" y="-9"/>
      <point x="491" y="53"/>
      <point x="491" y="182" type="curve" smooth="yes"/>
      <point x="491" y="301"/>
      <point x="434" y="333"/>
      <point x="359" y="353" type="curve"/>
      <point x="360" y="353"/>
      <point x="472" y="381"/>
      <point x="472" y="505" type="curve" smooth="yes"/>
      <point x="472" y="618"/>
      <point x="418" y="670"/>
      <point x="274" y="670" type="curve" smooth="yes"/>
      <point x="201" y="670"/>
      <point x="120" y="657"/>
      <point x="79" y="648" type="curve"/>
      <point x="85" y="614" type="line"/>
      <point x="124" y="623"/>
      <point x="203" y="636"/>
      <point x="275" y="636" type="curve" smooth="yes"/>
      <point x="393" y="636"/>
      <point x="434" y="600"/>
      <point x="434" y="506" type="curve" smooth="yes"/>
      <point x="434" y="409"/>
      <point x="344" y="366"/>
      <point x="290" y="366" type="curve" smooth="yes"/>
      <point x="157" y="366" type="line"/>
      <point x="157" y="332" type="line"/>
      <point x="291" y="332" type="line"/>
      <point x="378" y="327"/>
      <point x="453" y="298"/>
      <point x="453" y="179" type="curve" smooth="yes"/>
      <point x="453" y="78"/>
      <point x="401" y="26"/>
      <point x="283" y="25" type="curve" smooth="yes"/>
      <point x="206" y="25"/>
      <point x="117" y="38"/>
      <point x="72" y="48" type="curve"/>
      <point x="66" y="14" type="line"/>
      <point x="113" y="4"/>
      <point x="204" y="-9"/>
    </contour>
  </outline>
</glyph>
<glyph name="four" format="2">
  <advance width="560"/>
  <unicode hex="0034"/>
  <outline>
    <contour>
      <point x="387" y="0" type="line"/>
      <point x="423" y="0" type="line"/>
      <point x="423" y="142" type="line"/>
      <point x="521" y="142" type="line"/>
      <point x="521" y="176" type="line"/>
      <point x="423" y="176" type="line"/>
      <point x="423" y="395" type="line"/>
      <point x="387" y="395" type="line"/>
      <point x="387" y="176" type="line"/>
      <point x="83" y="176" type="line"/>
      <point x="284" y="660" type="line"/>
      <point x="245" y="660" type="line"/>
      <point x="40" y="172" type="line"/>
      <point x="40" y="142" type="line"/>
      <point x="387" y="142" type="line"/>
    </contour>
  </outline>
</glyph>
<glyph name="five" format="2">
  <advance width="560"/>
  <unicode hex="0035"/>
  <outline>
    <contour>
      <point x="281" y="-7" type="curve" smooth="yes"/>
      <point x="415" y="-7"/>
      <point x="499" y="66"/>
      <point x="499" y="220" type="curve" smooth="yes"/>
      <point x="499" y="363"/>
      <point x="416" y="412"/>
      <point x="291" y="412" type="curve" smooth="yes"/>
      <point x="223" y="412"/>
      <point x="149" y="383"/>
      <point x="112" y="361" type="curve"/>
      <point x="130" y="624" type="line"/>
      <point x="468" y="624" type="line"/>
      <point x="468" y="660" type="line"/>
      <point x="96" y="660" type="line"/>
      <point x="77" y="327" type="line"/>
      <point x="111" y="323" type="line"/>
      <point x="149" y="347"/>
      <point x="224" y="378"/>
      <point x="290" y="378" type="curve" smooth="yes"/>
      <point x="387" y="378"/>
      <point x="461" y="343"/>
      <point x="461" y="220" type="curve" smooth="yes"/>
      <point x="461" y="93"/>
      <point x="388" y="27"/>
      <point x="280" y="27" type="curve" smooth="yes"/>
      <point x="212" y="27"/>
      <point x="124" y="41"/>
      <point x="77" y="51" type="curve"/>
      <point x="72" y="17" type="line"/>
      <point x="119" y="7"/>
      <point x="208" y="-7"/>
    </contour>
  </outline>
</glyph>
<glyph name="nine" format="2">
  <advance width="560"/>
  <unicode hex="0039"/>
  <outline>
    <contour>
      <point x="247" y="-9" type="curve" smooth="yes"/>
      <point x="406" y="-9"/>
      <point x="499" y="72"/>
      <point x="499" y="324" type="curve" smooth="yes"/>
      <point x="499" y="534"/>
      <point x="431" y="669"/>
      <point x="270" y="669" type="curve" smooth="yes"/>
      <point x="137" y="669"/>
      <point x="50" y="584"/>
      <point x="50" y="451" type="curve" smooth="yes"/>
      <point x="50" y="315"/>
      <point x="123" y="256"/>
      <point x="259" y="256" type="curve" smooth="yes"/>
      <point x="323" y="256"/>
      <point x="412" y="281"/>
      <point x="461" y="300" type="curve"/>
      <point x="459" y="107"/>
      <point x="387" y="25"/>
      <point x="247" y="25" type="curve" smooth="yes"/>
      <point x="186" y="25"/>
      <point x="116" y="31"/>
      <point x="81" y="35" type="curve"/>
      <point x="77" y="2" type="line"/>
      <point x="114" y="-3"/>
      <point x="186" y="-9"/>
    </contour>
    <contour>
      <point x="261" y="290" type="curve" smooth="yes"/>
      <point x="147" y="290"/>
      <point x="88" y="337"/>
      <point x="88" y="451" type="curve" smooth="yes"/>
      <point x="88" y="563"/>
      <point x="158" y="635"/>
      <point x="270" y="635" type="curve" smooth="yes"/>
      <point x="407" y="635"/>
      <point x="458" y="513"/>
      <point x="462" y="335" type="curve"/>
      <point x="410" y="316"/>
      <point x="319" y="290"/>
    </contour>
  </outline>
</glyph>
<glyph name="colon" format="2">
  <advance width="191"/>
  <unicode hex="003A"/>
  <outline>
    <contour>
      <point x="75" y="344" type="line"/>
      <point x="115" y="344" type="line"/>
      <point x="115" y="424" type="line"/>
      <point x="75" y="424" type="line"/>
    </contour>
    <contour>
      <point x="75" y="0" type="line"/>
      <point x="115" y="0" type="line"/>
      <point x="115" y="80" type="line"/>
      <point x="75" y="80" type="line"/>
    </contour>
  </outline>
</glyph>
<glyph name="at" format="2">
  <advance width="979"/>
  <unicode hex="0040"/>
  <outline>
    <contour>
      <point x="504" y="-199" type="curve" smooth="yes"/>
      <point x="539" y="-199"/>
      <point x="608" y="-194"/>
      <point x="650" y="-190" type="curve"/>
      <point x="647" y="-157" type="line"/>
      <point x="603" y="-161"/>
      <point x="533" y="-167"/>
      <point x="504" y="-167" type="curve" smooth="yes"/>
      <point x="227" y="-167"/>
      <point x="97" y="-71"/>
      <point x="97" y="261" type="curve" smooth="yes"/>
      <point x="97" y="580"/>
      <point x="227" y="687"/>
      <point x="504" y="687" type="curve" smooth="yes"/>
      <point x="786" y="687"/>
      <point x="888" y="570"/>
      <point x="888" y="306" type="curve" smooth="yes"/>
      <point x="888" y="288" type="line" smooth="yes"/>
      <point x="888" y="29"/>
      <point x="839" y="20"/>
      <point x="767" y="20" type="curve" smooth="yes"/>
      <point x="677" y="20"/>
      <point x="672" y="48"/>
      <point x="672" y="300" type="curve" smooth="yes"/>
      <point x="672" y="500" type="line"/>
      <point x="637" y="500" type="line"/>
      <point x="637" y="482" type="line"/>
      <point x="605" y="494"/>
      <point x="547" y="509"/>
      <point x="505" y="509" type="curve" smooth="yes"/>
      <point x="341" y="509"/>
      <point x="295" y="415"/>
      <point x="295" y="243" type="curve" smooth="yes"/>
      <point x="295" y="0"/>
      <point x="402" y="-9"/>
      <point x="464" y="-9" type="curve" smooth="yes"/>
      <point x="523" y="-9"/>
      <point x="608" y="26"/>
      <point x="655" y="53" type="curve"/>
      <point x="660" y="26"/>
      <point x="692" y="-10"/>
      <point x="762" y="-10" type="curve" smooth="yes"/>
      <point x="857" y="-10"/>
      <point x="925" y="-1"/>
      <point x="925" y="288" type="curve" smooth="yes"/>
      <point x="925" y="305" type="line" smooth="yes"/>
      <point x="925" y="589"/>
      <point x="809" y="719"/>
      <point x="504" y="719" type="curve" smooth="yes"/>
      <point x="208" y="719"/>
      <point x="60" y="599"/>
      <point x="60" y="261" type="curve" smooth="yes"/>
      <point x="60" y="-100"/>
      <point x="208" y="-199"/>
    </contour>
    <contour>
      <point x="464" y="23" type="curve" smooth="yes"/>
      <point x="408" y="23"/>
      <point x="330" y="41"/>
      <point x="330" y="240" type="curve" smooth="yes"/>
      <point x="330" y="392"/>
      <point x="363" y="477"/>
      <point x="505" y="477" type="curve" smooth="yes"/>
      <point x="548" y="477"/>
      <point x="606" y="462"/>
      <point x="637" y="450" type="curve"/>
      <point x="637" y="300" type="line" smooth="yes"/>
      <point x="637" y="225"/>
      <point x="643" y="132"/>
      <point x="648" y="83" type="curve"/>
      <point x="599" y="57"/>
      <point x="514" y="23"/>
    </contour>
  </outline>
</glyph>
<glyph name="B" format="2">
  <advance width="620"/>
  <unicode hex="0042"/>
  <outline>
    <contour>
      <point x="92" y="0" type="line"/>
      <point x="351" y="0" type="line" smooth="yes"/>
      <point x="477" y="0"/>
      <point x="561" y="41"/>
      <point x="561" y="193" type="curve" smooth="yes"/>
      <point x="561" y="301"/>
      <point x="499" y="344"/>
      <point x="437" y="361" type="curve"/>
      <point x="494" y="382"/>
      <point x="534" y="428"/>
      <point x="534" y="527" type="curve" smooth="yes"/>
      <point x="534" y="645"/>
      <point x="466" y="700"/>
      <point x="332" y="700" type="curve" smooth="yes"/>
      <point x="92" y="700" type="line"/>
    </contour>
    <contour>
      <point x="128" y="34" type="line"/>
      <point x="128" y="341" type="line"/>
      <point x="343" y="341" type="line" smooth="yes"/>
      <point x="394" y="341"/>
      <point x="524" y="335"/>
      <point x="524" y="193" type="curve" smooth="yes"/>
      <point x="524" y="69"/>
      <point x="453" y="34"/>
      <point x="351" y="34" type="curve" smooth="yes"/>
    </contour>
    <contour>
      <point x="128" y="375" type="line"/>
      <point x="128" y="666" type="line"/>
      <point x="332" y="666" type="line" smooth="yes"/>
      <point x="444" y="666"/>
      <point x="497" y="624"/>
      <point x="497" y="527" type="curve" smooth="yes"/>
      <point x="497" y="425"/>
      <point x="452" y="375"/>
      <point x="343" y="375" type="curve" smooth="yes"/>
    </contour>
  </outline>
</glyph>
<glyph name="C" format="2">
  <advance width="545"/>
  <unicode hex="0043"/>
  <outline>
    <contour>
      <point x="316" y="-9" type="curve" smooth="yes"/>
      <point x="384" y="-9"/>
      <point x="451" y="1"/>
      <point x="501" y="11" type="curve"/>
      <point x="498" y="45" type="line"/>
      <point x="446" y="35"/>
      <point x="379" y="25"/>
      <point x="316" y="25" type="curve" smooth="yes"/>
      <point x="132" y="25"/>
      <point x="105" y="147"/>
      <point x="105" y="347" type="curve" smooth="yes"/>
      <point x="105" y="546"/>
      <point x="128" y="675"/>
      <point x="316" y="675" type="curve" smooth="yes"/>
      <point x="376" y="675"/>
      <point x="455" y="664"/>
      <point x="498" y="655" type="curve"/>
      <point x="501" y="690" type="line"/>
      <point x="455" y="699"/>
      <point x="386" y="709"/>
      <point x="316" y="709" type="curve" smooth="yes"/>
      <point x="103" y="709"/>
      <point x="67" y="565"/>
      <point x="67" y="347" type="curve" smooth="yes"/>
      <point x="67" y="125"/>
      <point x="110" y="-9"/>
    </contour>
  </outline>
</glyph>
<glyph name="G" format="2">
  <advance width="619"/>
  <unicode hex="0047"/>
  <anchor x="338" y="0" name="bottom"/>
  <outline>
    <contour>
      <point x="327" y="-9" type="curve" smooth="yes"/>
      <point x="393" y="-9"/>
      <point x="511" y="9"/>
      <point x="547" y="16" type="curve"/>
      <point x="547" y="347" type="line"/>
      <point x="361" y="347" type="line"/>
      <point x="361" y="313" type="line"/>
      <point x="511" y="313" type="line"/>
      <point x="511" y="45" type="line"/>
      <point x="467" y="37"/>
      <point x="383" y="25"/>
      <point x="327" y="25" type="curve" smooth="yes"/>
      <point x="143" y="25"/>
      <point x="103" y="147"/>
      <point x="103" y="347" type="curve" smooth="yes"/>
      <point x="103" y="546"/>
      <point x="139" y="675"/>
      <point x="327" y="675" type="curve" smooth="yes"/>
      <point x="393" y="675"/>
      <point x="490" y="660"/>
      <point x="544" y="649" type="curve"/>
      <point x="547" y="684" type="line"/>
      <point x="498" y="695"/>
      <point x="404" y="709"/>
      <point x="327" y="709" type="curve" smooth="yes"/>
      <point x="114" y="709"/>
      <point x="65" y="565"/>
      <point x="65" y="347" type="curve" smooth="yes"/>
      <point x="65" y="125"/>
      <point x="121" y="-9"/>
    </contour>
  </outline>
</glyph>
<glyph name="I" format="2">
  <advance width="220"/>
  <unicode hex="0049"/>
  <outline>
    <contour>
      <point x="92" y="0" type="line"/>
      <point x="128" y="0" type="line"/>
      <point x="128" y="700" type="line"/>
      <point x="92" y="700" type="line"/>
    </contour>
  </outline>
</glyph>
<glyph name="K" format="2">
  <advance width="553"/>
  <unicode hex="004B"/>
  <anchor x="290" y="0" name="bottom"/>
  <outline>
    <contour>
      <point x="92" y="0" type="line"/>
      <point x="128" y="0" type="line"/>
      <point x="128" y="329" type="line"/>
      <point x="259" y="329" type="line"/>
      <point x="490" y="0" type="line"/>
      <point x="536" y="0" type="line"/>
      <point x="289" y="348" type="line"/>
      <point x="520" y="700" type="line"/>
      <point x="477" y="700" type="line"/>
      <point x="257" y="363" type="line"/>
      <point x="128" y="363" type="line"/>
      <point x="128" y="700" type="line"/>
      <point x="92" y="700" type="line"/>
    </contour>
  </outline>
</glyph>
<glyph name="L" format="2">
  <advance width="483"/>
  <unicode hex="004C"/>
  <outline>
    <contour>
      <point x="92" y="0" type="line"/>
      <point x="469" y="0" type="line"/>
      <point x="469" y="34" type="line"/>
      <point x="128" y="34" type="line"/>
      <point x="128" y="700" type="line"/>
      <point x="92" y="700" type="line"/>
    </contour>
  </outline>
</glyph>
<glyph name="N" format="2">
  <advance width="665"/>
  <unicode hex="004E"/>
  <outline>
    <contour>
      <point x="92" y="0" type="line"/>
      <point x="128" y="0" type="line"/>
      <point x="128" y="666" type="line"/>
      <point x="154" y="666" type="line"/>
      <point x="488" y="0" type="line"/>
      <point x="573" y="0" type="line"/>
      <point x="573" y="700" type="line"/>
      <point x="537" y="700" type="line"/>
      <point x="537" y="34" type="line"/>
      <point x="510" y="34" type="line"/>
      <point x="177" y="700" type="line"/>
      <point x="92" y="700" type="line"/>
    </contour>
  </outline>
</glyph>
<glyph name="S" format="2">
  <advance width="540"/>
  <unicode hex="0053"/>
  <anchor x="285" y="0" name="bottom"/>
  <outline>
    <contour>
      <point x="274" y="-7" type="curve" smooth="yes"/>
      <point x="412" y="-7"/>
      <point x="486" y="47"/>
      <point x="486" y="203" type="curve" smooth="yes"/>
      <point x="486" y="329"/>
      <point x="414" y="359"/>
      <point x="282" y="380" type="curve" smooth="yes"/>
      <point x="156" y="400"/>
      <point x="94" y="415"/>
      <point x="94" y="537" type="curve" smooth="yes"/>
      <point x="94" y="637"/>
      <point x="158" y="677"/>
      <point x="272" y="677" type="curve" smooth="yes"/>
      <point x="314" y="677"/>
      <point x="408" y="667"/>
      <point x="467" y="660" type="curve"/>
      <point x="471" y="695" type="line"/>
      <point x="419" y="702"/>
      <point x="328" y="711"/>
      <point x="272" y="711" type="curve" smooth="yes"/>
      <point x="139" y="711"/>
      <point x="56" y="664"/>
      <point x="56" y="535" type="curve" smooth="yes"/>
      <point x="56" y="388"/>
      <point x="136" y="365"/>
      <point x="273" y="344" type="curve" smooth="yes"/>
      <point x="396" y="325"/>
      <point x="448" y="302"/>
      <point x="448" y="200" type="curve" smooth="yes"/>
      <point x="448" y="75"/>
      <point x="387" y="27"/>
      <point x="273" y="27" type="curve" smooth="yes"/>
      <point x="221" y="27"/>
      <point x="123" y="37"/>
      <point x="64" y="44" type="curve"/>
      <point x="60" y="9" type="line"/>
      <point x="120" y="2"/>
      <point x="219" y="-7"/>
    </contour>
  </outline>
</glyph>
<glyph name="T" format="2">
  <advance width="526"/>
  <unicode hex="0054"/>
  <outline>
    <contour>
      <point x="246" y="0" type="line"/>
      <point x="282" y="0" type="line"/>
      <point x="282" y="666" type="line"/>
      <point x="513" y="666" type="line"/>
      <point x="513" y="700" type="line"/>
      <point x="13" y="700" type="line"/>
      <point x="13" y="666" type="line"/>
      <point x="246" y="666" type="line"/>
    </contour>
  </outline>
</glyph>
<glyph name="V" format="2">
  <advance width="568"/>
  <unicode hex="0056"/>
  <outline>
    <contour>
      <point x="226" y="0" type="line"/>
      <point x="342" y="0" type="line"/>
      <point x="538" y="700" type="line"/>
      <point x="502" y="700" type="line"/>
      <point x="316" y="34" type="line"/>
      <point x="252" y="34" type="line"/>
      <point x="66" y="700" type="line"/>
      <point x="30" y="700" type="line"/>
    </contour>
  </outline>
</glyph>
<glyph name="X" format="2">
  <advance width="551"/>
  <unicode hex="0058"/>
  <outline>
    <contour>
      <point x="25" y="0" type="line"/>
      <point x="68" y="0" type="line"/>
      <point x="277" y="322" type="line"/>
      <point x="483" y="0" type="line"/>
      <point x="526" y="0" type="line"/>
      <point x="303" y="347" type="line"/>
      <point x="526" y="700" type="line"/>
      <point x="483" y="700" type="line"/>
      <point x="276" y="374" type="line"/>
      <point x="68" y="700" type="line"/>
      <point x="25" y="700" type="line"/>
      <point x="251" y="347" type="line"/>
    </contour>
  </outline>
</glyph>
<glyph name="backslash" format="2">
  <advance width="395"/>
  <unicode hex="005C"/>
  <outline>
    <contour>
      <point x="330" y="0" type="line"/>
      <point x="365" y="14" type="line"/>
      <point x="64" y="701" type="line"/>
      <point x="29" y="687" type="line"/>
    </contour>
  </outline>
</glyph>
<glyph name="bracketright" format="2">
  <advance width="311"/>
  <unicode hex="005D"/>
  <outline>
    <contour>
      <point x="225" y="-123" type="line"/>
      <point x="225" y="749" type="line"/>
      <point x="43" y="749" type="line"/>
      <point x="43" y="717" type="line"/>
      <point x="190" y="717" type="line"/>
      <point x="190" y="-91" type="line"/>
      <point x="43" y="-91" type="line"/>
      <point x="43" y="-123" type="line"/>
    </contour>
  </outline>
</glyph>
<glyph name="underscore" format="2">
  <advance width="640"/>
  <unicode hex="005F"/>
  <outline>
    <contour>
      <point x="106" y="-138" type="line"/>
      <point x="534" y="-138" type="line"/>
      <point x="534" y="-104" type="line"/>
      <point x="106" y="-104" type="line"/>
    </contour>
  </outline>
</glyph>
<glyph name="b" format="2">
  <advance width="514"/>
  <unicode hex="0062"/>
  <outline>
    <contour>
      <point x="227" y="-9" type="curve" smooth="yes"/>
      <point x="413" y="-9"/>
      <point x="455" y="71"/>
      <point x="455" y="258" type="curve" smooth="yes"/>
      <point x="455" y="430"/>
      <point x="421" y="509"/>
      <point x="285" y="509" type="curve" smooth="yes"/>
      <point x="220" y="509"/>
      <point x="149" y="486"/>
      <point x="113" y="469" type="curve"/>
      <point x="113" y="730" type="line"/>
      <point x="78" y="730" type="line"/>
      <point x="78" y="0" type="line"/>
      <point x="113" y="-4"/>
      <point x="177" y="-9"/>
    </contour>
    <contour>
      <point x="226" y="23" type="curve" smooth="yes"/>
      <point x="200" y="23"/>
      <point x="147" y="26"/>
      <point x="113" y="29" type="curve"/>
      <point x="113" y="437" type="line"/>
      <point x="149" y="454"/>
      <point x="220" y="477"/>
      <point x="285" y="477" type="curve" smooth="yes"/>
      <point x="396" y="477"/>
      <point x="418" y="406"/>
      <point x="418" y="258" type="curve" smooth="yes"/>
      <point x="418" y="97"/>
      <point x="393" y="23"/>
    </contour>
  </outline>
</glyph>
<glyph name="c" format="2">
  <advance width="429"/>
  <unicode hex="0063"/>
  <outline>
    <contour>
      <point x="265" y="-9" type="curve" smooth="yes"/>
      <point x="293" y="-9"/>
      <point x="351" y="-4"/>
      <point x="387" y="0" type="curve"/>
      <point x="385" y="32" type="line"/>
      <point x="350" y="28"/>
      <point x="293" y="23"/>
      <point x="265" y="23" type="curve" smooth="yes"/>
      <point x="123" y="23"/>
      <point x="97" y="89"/>
      <point x="97" y="261" type="curve" smooth="yes"/>
      <point x="97" y="419"/>
      <point x="137" y="477"/>
      <point x="265" y="477" type="curve" smooth="yes"/>
      <point x="293" y="477"/>
      <point x="349" y="471"/>
      <point x="383" y="467" type="curve"/>
      <point x="385" y="499" type="line"/>
      <point x="350" y="503"/>
      <point x="293" y="509"/>
      <point x="265" y="509" type="curve" smooth="yes"/>
      <point x="116" y="509"/>
      <point x="60" y="446"/>
      <point x="60" y="261" type="curve" smooth="yes"/>
      <point x="60" y="60"/>
      <point x="98" y="-9"/>
    </contour>
  </outline>
</glyph>
<glyph name="d" format="2">
  <advance width="515"/>
  <unicode hex="0064"/>
  <outline>
    <contour>
      <point x="228" y="-9" type="curve" smooth="yes"/>
      <point x="294" y="-9"/>
      <point x="366" y="20"/>
      <point x="401" y="42" type="curve"/>
      <point x="401" y="0" type="line"/>
      <point x="436" y="0" type="line"/>
      <point x="436" y="730" type="line"/>
      <point x="401" y="730" type="line"/>
      <point x="401" y="497" type="line"/>
      <point x="376" y="501"/>
      <point x="316" y="509"/>
      <point x="269" y="509" type="curve" smooth="yes"/>
      <point x="105" y="509"/>
      <point x="58" y="414"/>
      <point x="58" y="242" type="curve" smooth="yes"/>
      <point x="58" y="-1"/>
      <point x="166" y="-9"/>
    </contour>
    <contour>
      <point x="228" y="23" type="curve" smooth="yes"/>
      <point x="172" y="23"/>
      <point x="95" y="40"/>
      <point x="95" y="242" type="curve" smooth="yes"/>
      <point x="95" y="391"/>
      <point x="127" y="477"/>
      <point x="269" y="477" type="curve" smooth="yes"/>
      <point x="308" y="477"/>
      <point x="375" y="469"/>
      <point x="401" y="465" type="curve"/>
      <point x="401" y="75" type="line"/>
      <point x="364" y="53"/>
      <point x="291" y="23"/>
    </contour>
  </outline>
</glyph>
<glyph name="e" format="2">
  <advance width="502"/>
  <unicode hex="0065"/>
  <outline>
    <contour>
      <point x="246" y="-9" type="curve" smooth="yes"/>
      <point x="299" y="-9"/>
      <point x="383" y="-4"/>
      <point x="431" y="0" type="curve"/>
      <point x="429" y="32" type="line"/>
      <point x="381" y="28"/>
      <point x="298" y="23"/>
      <point x="247" y="23" type="curve" smooth="yes"/>
      <point x="131" y="23"/>
      <point x="95" y="98"/>
      <point x="95" y="236" type="curve"/>
      <point x="450" y="236" type="line"/>
      <point x="450" y="269" type="line" smooth="yes"/>
      <point x="450" y="442"/>
      <point x="383" y="509"/>
      <point x="260" y="509" type="curve" smooth="yes"/>
      <point x="146" y="509"/>
      <point x="58" y="448"/>
      <point x="58" y="250" type="curve" smooth="yes"/>
      <point x="58" y="87"/>
      <point x="97" y="-8"/>
    </contour>
    <contour>
      <point x="95" y="268" type="line"/>
      <point x="95" y="420"/>
      <point x="160" y="477"/>
      <point x="260" y="477" type="curve" smooth="yes"/>
      <point x="364" y="477"/>
      <point x="413" y="421"/>
      <point x="413" y="268" type="curve"/>
    </contour>
  </outline>
</glyph>
<glyph name="h" format="2">
  <advance width="526"/>
  <unicode hex="0068"/>
  <outline>
    <contour>
      <point x="79" y="0" type="line"/>
      <point x="114" y="0" type="line"/>
      <point x="114" y="437" type="line"/>
      <point x="151" y="454"/>
      <point x="223" y="477"/>
      <point x="288" y="477" type="curve" smooth="yes"/>
      <point x="399" y="477"/>
      <point x="417" y="428"/>
      <point x="417" y="258" type="curve" smooth="yes"/>
      <point x="417" y="0" type="line"/>
      <point x="452" y="0" type="line"/>
      <point x="452" y="260" type="line" smooth="yes"/>
      <point x="452" y="454"/>
      <point x="424" y="509"/>
      <point x="288" y="509" type="curve" smooth="yes"/>
      <point x="225" y="509"/>
      <point x="152" y="487"/>
      <point x="114" y="470" type="curve"/>
      <point x="114" y="730" type="line"/>
      <point x="79" y="730" type="line"/>
    </contour>
  </outline>
</glyph>
<glyph name="k" format="2">
  <advance width="455"/>
  <unicode hex="006B"/>
  <outline>
    <contour>
      <point x="79" y="0" type="line"/>
      <point x="114" y="0" type="line"/>
      <point x="114" y="257" type="line"/>
      <point x="210" y="257" type="line"/>
      <point x="390" y="0" type="line"/>
      <point x="432" y="0" type="line"/>
      <point x="240" y="274" type="line"/>
      <point x="424" y="500" type="line"/>
      <point x="382" y="500" type="line"/>
      <point x="210" y="289" type="line"/>
      <point x="114" y="289" type="line"/>
      <point x="114" y="730" type="line"/>
      <point x="79" y="730" type="line"/>
    </contour>
  </outline>
</glyph>
<glyph name="l" format="2">
  <advance width="205"/>
  <unicode hex="006C"/>
  <anchor x="103" y="0" name="bottom"/>
  <outline>
    <contour>
      <point x="85" y="0" type="line"/>
      <point x="120" y="0" type="line"/>
      <point x="120" y="730" type="line"/>
      <point x="85" y="730" type="line"/>
    </contour>
  </outline>
</glyph>
<glyph name="m" format="2">
  <advance width="834"/>
  <unicode hex="006D"/>
  <outline>
    <contour>
      <point x="79" y="0" type="line"/>
      <point x="114" y="0" type="line"/>
      <point x="114" y="427" type="line"/>
      <point x="146" y="449"/>
      <point x="213" y="477"/>
      <point x="278" y="477" type="curve" smooth="yes"/>
      <point x="389" y="477"/>
      <point x="407" y="428"/>
      <point x="407" y="258" type="curve" smooth="yes"/>
      <point x="407" y="0" type="line"/>
      <point x="442" y="0" type="line"/>
      <point x="442" y="260" type="line" smooth="yes"/>
      <point x="442" y="335"/>
      <point x="438" y="390"/>
      <point x="424" y="428" type="curve"/>
      <point x="456" y="449"/>
      <point x="525" y="477"/>
      <point x="596" y="477" type="curve" smooth="yes"/>
      <point x="707" y="477"/>
      <point x="725" y="428"/>
      <point x="725" y="258" type="curve" smooth="yes"/>
      <point x="725" y="0" type="line"/>
      <point x="760" y="0" type="line"/>
      <point x="760" y="260" type="line" smooth="yes"/>
      <point x="760" y="454"/>
      <point x="732" y="509"/>
      <point x="596" y="509" type="curve" smooth="yes"/>
      <point x="524" y="509"/>
      <point x="449" y="478"/>
      <point x="412" y="455" type="curve"/>
      <point x="388" y="493"/>
      <point x="352" y="509"/>
      <point x="278" y="509" type="curve" smooth="yes"/>
      <point x="215" y="509"/>
      <point x="148" y="481"/>
      <point x="114" y="460" type="curve"/>
      <point x="114" y="500" type="line"/>
      <point x="79" y="500" type="line"/>
    </contour>
  </outline>
</glyph>
<glyph name="n" format="2">
  <advance width="527"/>
  <unicode hex="006E"/>
  <outline>
    <contour>
      <point x="79" y="0" type="line"/>
      <point x="114" y="0" type="line"/>
      <point x="114" y="427" type="line"/>
      <point x="151" y="449"/>
      <point x="224" y="477"/>
      <point x="289" y="477" type="curve" smooth="yes"/>
      <point x="400" y="477"/>
      <point x="418" y="428"/>
      <point x="418" y="258" type="curve" smooth="yes"/>
      <point x="418" y="0" type="line"/>
      <point x="453" y="0" type="line"/>
      <point x="453" y="260" type="line" smooth="yes"/>
      <point x="453" y="454"/>
      <point x="425" y="509"/>
      <point x="289" y="509" type="curve" smooth="yes"/>
      <point x="226" y="509"/>
      <point x="152" y="481"/>
      <point x="114" y="460" type="curve"/>
      <point x="114" y="500" type="line"/>
      <point x="79" y="500" type="line"/>
    </contour>
  </outline>
</glyph>
<glyph name="o" format="2">
  <advance width="526"/>
  <unicode hex="006F"/>
  <outline>
    <contour>
      <point x="263" y="-9" type="curve" smooth="yes"/>
      <point x="428" y="-9"/>
      <point x="466" y="58"/>
      <point x="466" y="259" type="curve" smooth="yes"/>
      <point x="466" y="444"/>
      <point x="411" y="509"/>
      <point x="263" y="509" type="curve" smooth="yes"/>
      <point x="115" y="509"/>
      <point x="60" y="444"/>
      <point x="60" y="259" type="curve" smooth="yes"/>
      <point x="60" y="58"/>
      <point x="98" y="-9"/>
    </contour>
    <contour>
      <point x="263" y="23" type="curve" smooth="yes"/>
      <point x="115" y="23"/>
      <point x="97" y="87"/>
      <point x="97" y="259" type="curve" smooth="yes"/>
      <point x="97" y="427"/>
      <point x="135" y="477"/>
      <point x="263" y="477" type="curve" smooth="yes"/>
      <point x="391" y="477"/>
      <point x="429" y="427"/>
      <point x="429" y="259" type="curve" smooth="yes"/>
      <point x="429" y="87"/>
      <point x="411" y="23"/>
    </contour>
  </outline>
</glyph>
<glyph name="q" format="2">
  <advance width="514"/>
  <unicode hex="0071"/>
  <outline>
    <contour>
      <point x="400" y="-230" type="line"/>
      <point x="435" y="-230" type="line"/>
      <point x="435" y="500" type="line"/>
      <point x="392" y="504"/>
      <point x="321" y="509"/>
      <point x="286" y="509" type="curve" smooth="yes"/>
      <point x="110" y="509"/>
      <point x="58" y="426"/>
      <point x="58" y="242" type="curve" smooth="yes"/>
      <point x="58" y="75"/>
      <point x="102" y="-9"/>
      <point x="238" y="-9" type="curve" smooth="yes"/>
      <point x="303" y="-9"/>
      <point x="369" y="13"/>
      <point x="400" y="29" type="curve"/>
    </contour>
    <contour>
      <point x="238" y="23" type="curve" smooth="yes"/>
      <point x="127" y="23"/>
      <point x="95" y="101"/>
      <point x="95" y="242" type="curve" smooth="yes"/>
      <point x="95" y="400"/>
      <point x="130" y="477"/>
      <point x="287" y="477" type="curve" smooth="yes"/>
      <point x="313" y="477"/>
      <point x="366" y="474"/>
      <point x="400" y="471" type="curve"/>
      <point x="400" y="63" type="line"/>
      <point x="369" y="46"/>
      <point x="303" y="23"/>
    </contour>
  </outline>
</glyph>
<glyph name="r" format="2">
  <advance width="328"/>
  <unicode hex="0072"/>
  <outline>
    <contour>
      <point x="79" y="0" type="line"/>
      <point x="114" y="0" type="line"/>
      <point x="114" y="389" type="line"/>
      <point x="157" y="417"/>
      <point x="240" y="459"/>
      <point x="312" y="474" type="curve"/>
      <point x="312" y="510" type="line"/>
      <point x="232" y="495"/>
      <point x="152" y="451"/>
      <point x="114" y="422" type="curve"/>
      <point x="114" y="500" type="line"/>
      <point x="79" y="500" type="line"/>
    </contour>
  </outline>
</glyph>
<glyph name="s" format="2">
  <advance width="461"/>
  <unicode hex="0073"/>
  <outline>
    <contour>
      <point x="222" y="-9" type="curve" smooth="yes"/>
      <point x="340" y="-9"/>
      <point x="412" y="27"/>
      <point x="412" y="144" type="curve" smooth="yes"/>
      <point x="412" y="238"/>
      <point x="361" y="257"/>
      <point x="230" y="278" type="curve" smooth="yes"/>
      <point x="115" y="296"/>
      <point x="88" y="315"/>
      <point x="88" y="377" type="curve" smooth="yes"/>
      <point x="88" y="458"/>
      <point x="158" y="477"/>
      <point x="222" y="477" type="curve" smooth="yes"/>
      <point x="272" y="477"/>
      <point x="348" y="468"/>
      <point x="392" y="461" type="curve"/>
      <point x="394" y="494" type="line"/>
      <point x="353" y="500"/>
      <point x="278" y="509"/>
      <point x="222" y="509" type="curve" smooth="yes"/>
      <point x="141" y="509"/>
      <point x="51" y="481"/>
      <point x="51" y="375" type="curve" smooth="yes"/>
      <point x="51" y="282"/>
      <point x="103" y="263"/>
      <point x="220" y="245" type="curve" smooth="yes"/>
      <point x="339" y="227"/>
      <point x="375" y="213"/>
      <point x="375" y="141" type="curve" smooth="yes"/>
      <point x="375" y="45"/>
      <point x="314" y="23"/>
      <point x="220" y="23" type="curve" smooth="yes"/>
      <point x="183" y="23"/>
      <point x="107" y="33"/>
      <point x="61" y="40" type="curve"/>
      <point x="57" y="7" type="line"/>
      <point x="103" y="0"/>
      <point x="180" y="-9"/>
    </contour>
  </outline>
</glyph>
<glyph name="t" format="2">
  <advance width="342"/>
  <unicode hex="0074"/>
  <outline>
    <contour>
      <point x="235" y="-10" type="curve" smooth="yes"/>
      <point x="261" y="-10"/>
      <point x="308" y="-5"/>
      <point x="336" y="-2" type="curve"/>
      <point x="333" y="30" type="line"/>
      <point x="303" y="27"/>
      <point x="255" y="22"/>
      <point x="235" y="22" type="curve" smooth="yes"/>
      <point x="154" y="22"/>
      <point x="143" y="57"/>
      <point x="143" y="206" type="curve" smooth="yes"/>
      <point x="143" y="468" type="line"/>
      <point x="325" y="468" type="line"/>
      <point x="325" y="500" type="line"/>
      <point x="143" y="500" type="line"/>
      <point x="143" y="663" type="line"/>
      <point x="108" y="663" type="line"/>
      <point x="108" y="500" type="line"/>
      <point x="29" y="500" type="line"/>
      <point x="29" y="468" type="line"/>
      <point x="108" y="468" type="line"/>
      <point x="108" y="168" type="line" smooth="yes"/>
      <point x="108" y="24"/>
      <point x="144" y="-10"/>
    </contour>
  </outline>
</glyph>
<glyph name="v" format="2">
  <advance width="470"/>
  <unicode hex="0076"/>
  <outline>
    <contour>
      <point x="186" y="0" type="line"/>
      <point x="284" y="0" type="line"/>
      <point x="439" y="500" type="line"/>
      <point x="402" y="500" type="line"/>
      <point x="257" y="32" type="line"/>
      <point x="213" y="32" type="line"/>
      <point x="72" y="500" type="line"/>
      <point x="31" y="500" type="line"/>
    </contour>
  </outline>
</glyph>
<glyph name="y" format="2">
  <advance width="471"/>
  <unicode hex="0079"/>
  <outline>
    <contour>
      <point x="175" y="-230" type="line"/>
      <point x="212" y="-230" type="line"/>
      <point x="441" y="500" type="line"/>
      <point x="404" y="500" type="line"/>
      <point x="256" y="32" type="line"/>
      <point x="215" y="32" type="line"/>
      <point x="68" y="500" type="line"/>
      <point x="31" y="500" type="line"/>
      <point x="186" y="0" type="line"/>
      <point x="247" y="0" type="line"/>
    </contour>
  </outline>
</glyph>
<glyph name="z" format="2">
  <advance width="455"/>
  <unicode hex="007A"/>
  <outline>
    <contour>
      <point x="42" y="0" type="line"/>
      <point x="413" y="0" type="line"/>
      <point x="413" y="32" type="line"/>
      <point x="87" y="32" type="line"/>
      <point x="413" y="468" type="line"/>
      <point x="413" y="500" type="line"/>
      <point x="42" y="500" type="line"/>
      <point x="42" y="468" type="line"/>
      <point x="369" y="468" type="line"/>
      <point x="42" y="32" type="line"/>
    </contour>
  </outline>
</glyph>
<glyph name="braceleft" format="2">
  <advance width="346"/>
  <unicode hex="007B"/>
  <outline>
    <contour>
      <point x="302" y="-124" type="curve"/>
      <point x="304" y="-92" type="line"/>
      <point x="190" y="-87"/>
      <point x="161" y="-35"/>
      <point x="161" y="53" type="curve" smooth="yes"/>
      <point x="161" y="77"/>
      <point x="163" y="101"/>
      <point x="165" y="125" type="curve" smooth="yes"/>
      <point x="166" y="140"/>
      <point x="167" y="154"/>
      <point x="168" y="169" type="curve"/>
      <point x="168" y="253"/>
      <point x="141" y="287"/>
      <point x="68" y="311" type="curve"/>
      <point x="141" y="335"/>
      <point x="168" y="367"/>
      <point x="168" y="455" type="curve" smooth="yes"/>
      <point x="168" y="469"/>
      <point x="166" y="490"/>
      <point x="165" y="511" type="curve"/>
      <point x="163" y="534"/>
      <point x="161" y="557"/>
      <point x="161" y="574" type="curve" smooth="yes"/>
      <point x="161" y="664"/>
      <point x="190" y="714"/>
      <point x="304" y="719" type="curve"/>
      <point x="302" y="751" type="line"/>
      <point x="174" y="746"/>
      <point x="126" y="693"/>
      <point x="126" y="574" type="curve" smooth="yes"/>
      <point x="126" y="554"/>
      <point x="128" y="527"/>
      <point x="130" y="502" type="curve" smooth="yes"/>
      <point x="131" y="480"/>
      <point x="133" y="459"/>
      <point x="133" y="446" type="curve" smooth="yes"/>
      <point x="133" y="381"/>
      <point x="106" y="345"/>
      <point x="29" y="326" type="curve"/>
      <point x="29" y="294" type="line"/>
      <point x="105" y="272"/>
      <point x="133" y="240"/>
      <point x="133" y="176" type="curve" smooth="yes"/>
      <point x="133" y="165"/>
      <point x="132" y="147"/>
      <point x="130" y="127" type="curve" smooth="yes"/>
      <point x="128" y="102"/>
      <point x="126" y="75"/>
      <point x="126" y="53" type="curve" smooth="yes"/>
      <point x="126" y="-66"/>
      <point x="174" y="-119"/>
    </contour>
  </outline>
</glyph>
<glyph name="exclamdown" format="2">
  <advance width="204"/>
  <unicode hex="00A1"/>
  <outline>
    <contour>
      <point x="119" y="286" type="line"/>
      <point x="84" y="286" type="line"/>
      <point x="84" y="-200" type="line"/>
      <point x="119" y="-200" type="line"/>
    </contour>
    <contour>
      <point x="121" y="500" type="line"/>
      <point x="81" y="500" type="line"/>
      <point x="81" y="420" type="line"/>
      <point x="121" y="420" type="line"/>
    </contour>
  </outline>
</glyph>
<glyph name="cent" format="2">
  <advance width="560"/>
  <unicode hex="00A2"/>
  <outline>
    <contour>
      <point x="284" y="-85" type="line"/>
      <point x="319" y="-85" type="line"/>
      <point x="319" y="41" type="line"/>
      <point x="350" y="42"/>
      <point x="404" y="47"/>
      <point x="436" y="50" type="curve"/>
      <point x="434" y="85" type="line"/>
      <point x="403" y="82"/>
      <point x="346" y="77"/>
      <point x="304" y="77" type="curve" smooth="yes"/>
      <point x="181" y="77"/>
      <point x="149" y="115"/>
      <point x="149" y="247" type="curve" smooth="yes"/>
      <point x="149" y="376"/>
      <point x="186" y="425"/>
      <point x="294" y="425" type="curve" smooth="yes"/>
      <point x="336" y="425"/>
      <point x="398" y="419"/>
      <point x="432" y="415" type="curve"/>
      <point x="434" y="448" type="line"/>
      <point x="403" y="453"/>
      <point x="351" y="460"/>
      <point x="318" y="460" type="curve"/>
      <point x="318" y="591" type="line"/>
      <point x="283" y="591" type="line"/>
      <point x="283" y="461" type="line"/>
      <point x="161" y="457"/>
      <point x="109" y="397"/>
      <point x="109" y="247" type="curve" smooth="yes"/>
      <point x="109" y="84"/>
      <point x="161" y="45"/>
      <point x="284" y="41" type="curve"/>
    </contour>
  </outline>
</glyph>
<glyph name="sterling" format="2">
  <advance width="560"/>
  <unicode hex="00A3"/>
  <outline>
    <contour>
      <point x="83" y="0" type="line"/>
      <point x="391" y="0" type="line"/>
      <point x="473" y="18" type="line"/>
      <point x="466" y="50" type="line"/>
      <point x="384" y="34" type="line"/>
      <point x="210" y="34" type="line"/>
      <point x="210" y="374" type="line"/>
      <point x="392" y="374" type="line"/>
      <point x="392" y="406" type="line"/>
      <point x="210" y="406" type="line"/>
      <point x="210" y="454" type="line" smooth="yes"/>
      <point x="210" y="603"/>
      <point x="230" y="637"/>
      <point x="312" y="637" type="curve" smooth="yes"/>
      <point x="336" y="637"/>
      <point x="395" y="630"/>
      <point x="432" y="625" type="curve"/>
      <point x="432" y="657" type="line"/>
      <point x="397" y="662"/>
      <point x="340" y="669"/>
      <point x="312" y="669" type="curve" smooth="yes"/>
      <point x="211" y="669"/>
      <point x="175" y="631"/>
      <point x="175" y="458" type="curve" smooth="yes"/>
      <point x="175" y="406" type="line"/>
      <point x="106" y="406" type="line"/>
      <point x="106" y="374" type="line"/>
      <point x="175" y="374" type="line"/>
      <point x="175" y="34" type="line"/>
      <point x="83" y="34" type="line"/>
    </contour>
  </outline>
</glyph>
<glyph name="yen" format="2">
  <advance width="560"/>
  <unicode hex="00A5"/>
  <outline>
    <contour>
      <point x="263" y="0" type="line"/>
      <point x="299" y="0" type="line"/>
      <point x="299" y="182" type="line"/>
      <point x="503" y="182" type="line"/>
      <point x="503" y="216" type="line"/>
      <point x="299" y="216" type="line"/>
      <point x="299" y="311" type="line"/>
      <point x="312" y="331" type="line"/>
      <point x="502" y="331" type="line"/>
      <point x="502" y="365" type="line"/>
      <point x="334" y="365" type="line"/>
      <point x="525" y="660" type="line"/>
      <point x="483" y="660" type="line"/>
      <point x="281" y="351" type="line"/>
      <point x="76" y="660" type="line"/>
      <point x="35" y="660" type="line"/>
      <point x="228" y="365" type="line"/>
      <point x="57" y="365" type="line"/>
      <point x="57" y="331" type="line"/>
      <point x="250" y="331" type="line"/>
      <point x="263" y="311" type="line"/>
      <point x="263" y="216" type="line"/>
      <point x="58" y="216" type="line"/>
      <point x="58" y="182" type="line"/>
      <point x="263" y="182" type="line"/>
    </contour>
  </outline>
</glyph>
<glyph name="copyright" format="2">
  <advance width="647"/>
  <unicode hex="00A9"/>
  <outline>
    <contour>
      <point x="323" y="169" type="curve" smooth="yes"/>
      <point x="470" y="169"/>
      <point x="579" y="287"/>
      <point x="579" y="434" type="curve" smooth="yes"/>
      <point x="579" y="581"/>
      <point x="470" y="700"/>
      <point x="323" y="700" type="curve" smooth="yes"/>
      <point x="176" y="700"/>
      <point x="68" y="581"/>
      <point x="68" y="434" type="curve" smooth="yes"/>
      <point x="68" y="287"/>
      <point x="176" y="169"/>
    </contour>
    <contour>
      <point x="323" y="281" type="curve" smooth="yes"/>
      <point x="346" y="281"/>
      <point x="379" y="286"/>
      <point x="397" y="289" type="curve"/>
      <point x="396" y="321" type="line"/>
      <point x="377" y="318"/>
      <point x="343" y="313"/>
      <point x="323" y="313" type="curve" smooth="yes"/>
      <point x="259" y="313"/>
      <point x="246" y="357"/>
      <point x="246" y="433" type="curve" smooth="yes"/>
      <point x="246" y="510"/>
      <point x="253" y="555"/>
      <point x="323" y="555" type="curve" smooth="yes"/>
      <point x="346" y="555"/>
      <point x="378" y="551"/>
      <point x="396" y="548" type="curve"/>
      <point x="397" y="580" type="line"/>
      <point x="382" y="583"/>
      <point x="351" y="587"/>
      <point x="323" y="587" type="curve" smooth="yes"/>
      <point x="233" y="587"/>
      <point x="214" y="524"/>
      <point x="214" y="433" type="curve" smooth="yes"/>
      <point x="214" y="342"/>
      <point x="235" y="281"/>
    </contour>
    <contour>
      <point x="323" y="201" type="curve" smooth="yes"/>
      <point x="194" y="201"/>
      <point x="100" y="305"/>
      <point x="100" y="434" type="curve" smooth="yes"/>
      <point x="100" y="563"/>
      <point x="194" y="668"/>
      <point x="323" y="668" type="curve" smooth="yes"/>
      <point x="452" y="668"/>
      <point x="547" y="563"/>
      <point x="547" y="434" type="curve" smooth="yes"/>
      <point x="547" y="305"/>
      <point x="452" y="201"/>
    </contour>
  </outline>
</glyph>
<glyph name="ordfeminine" format="2">
  <advance width="366"/>
  <unicode hex="00AA"/>
  <outline>
    <contour>
      <point x="301" y="385" type="curve"/>
      <point x="307" y="414" type="line"/>
      <point x="293" y="417"/>
      <point x="278" y="424"/>
      <point x="270" y="437" type="curve"/>
      <point x="270" y="571" type="line" smooth="yes"/>
      <point x="270" y="634"/>
      <point x="244" y="659"/>
      <point x="187" y="659" type="curve" smooth="yes"/>
      <point x="160" y="659"/>
      <point x="111" y="654"/>
      <point x="81" y="651" type="curve"/>
      <point x="85" y="621" type="line"/>
      <point x="114" y="624"/>
      <point x="161" y="629"/>
      <point x="187" y="629" type="curve" smooth="yes"/>
      <point x="227" y="629"/>
      <point x="239" y="616"/>
      <point x="239" y="571" type="curve" smooth="yes"/>
      <point x="239" y="431" type="line"/>
      <point x="254" y="405"/>
      <point x="268" y="392"/>
    </contour>
    <contour>
      <point x="132" y="386" type="curve" smooth="yes"/>
      <point x="176" y="386"/>
      <point x="231" y="400"/>
      <point x="260" y="410" type="curve"/>
      <point x="250" y="438" type="line"/>
      <point x="223" y="429"/>
      <point x="172" y="416"/>
      <point x="132" y="416" type="curve" smooth="yes"/>
      <point x="108" y="416"/>
      <point x="93" y="434"/>
      <point x="93" y="466" type="curve" smooth="yes"/>
      <point x="93" y="498"/>
      <point x="104" y="510"/>
      <point x="139" y="512" type="curve" smooth="yes"/>
      <point x="241" y="519" type="line"/>
      <point x="239" y="549" type="line"/>
      <point x="137" y="542" type="line" smooth="yes"/>
      <point x="86" y="538"/>
      <point x="62" y="514"/>
      <point x="62" y="466" type="curve" smooth="yes"/>
      <point x="62" y="417"/>
      <point x="91" y="386"/>
    </contour>
  </outline>
</glyph>
<glyph name="guillemotleft" format="2">
  <advance width="497"/>
  <unicode hex="00AB"/>
  <outline>
    <contour>
      <point x="422" y="96" type="line"/>
      <point x="422" y="137" type="line"/>
      <point x="287" y="254" type="line"/>
      <point x="422" y="360" type="line"/>
      <point x="422" y="399" type="line"/>
      <point x="255" y="270" type="line"/>
      <point x="255" y="234" type="line"/>
    </contour>
    <contour>
      <point x="215" y="96" type="line"/>
      <point x="215" y="137" type="line"/>
      <point x="80" y="254" type="line"/>
      <point x="215" y="360" type="line"/>
      <point x="215" y="399" type="line"/>
      <point x="48" y="270" type="line"/>
      <point x="48" y="234" type="line"/>
    </contour>
  </outline>
</glyph>
<glyph name="logicalnot" format="2">
  <advance width="560"/>
  <unicode hex="00AC"/>
  <outline>
    <contour>
      <point x="457" y="126" type="line"/>
      <point x="493" y="126" type="line"/>
      <point x="493" y="332" type="line"/>
      <point x="71" y="332" type="line"/>
      <point x="71" y="298" type="line"/>
      <point x="457" y="298" type="line"/>
    </contour>
  </outline>
</glyph>
<glyph name="degree" format="2">
  <advance width="560"/>
  <unicode hex="00B0"/>
  <outline>
    <contour>
      <point x="280" y="438" type="curve" smooth="yes"/>
      <point x="361" y="438"/>
      <point x="416" y="492"/>
      <point x="416" y="573" type="curve" smooth="yes"/>
      <point x="416" y="654"/>
      <point x="361" y="709"/>
      <point x="280" y="709" type="curve" smooth="yes"/>
      <point x="199" y="709"/>
      <point x="144" y="654"/>
      <point x="144" y="573" type="curve" smooth="yes"/>
      <point x="144" y="492"/>
      <point x="199" y="438"/>
    </contour>
    <contour>
      <point x="280" y="470" type="curve" smooth="yes"/>
      <point x="218" y="470"/>
      <point x="178" y="511"/>
      <point x="178" y="573" type="curve" smooth="yes"/>
      <point x="178" y="635"/>
      <point x="218" y="677"/>
      <point x="280" y="677" type="curve" smooth="yes"/>
      <point x="342" y="677"/>
      <point x="384" y="635"/>
      <point x="384" y="573" type="curve" smooth="yes"/>
      <point x="384" y="511"/>
      <point x="342" y="470"/>
    </contour>
  </outline>
</glyph>
<glyph name="plusminus" format="2">
  <advance width="560"/>
  <unicode hex="00B1"/>
  <outline>
    <contour>
      <point x="261" y="164" type="line"/>
      <point x="297" y="164" type="line"/>
      <point x="297" y="308" type="line"/>
      <point x="501" y="308" type="line"/>
      <point x="501" y="342" type="line"/>
      <point x="297" y="342" type="line"/>
      <point x="297" y="480" type="line"/>
      <point x="261" y="480" type="line"/>
      <point x="261" y="342" type="line"/>
      <point x="59" y="342" type="line"/>
      <point x="59" y="308" type="line"/>
      <point x="261" y="308" type="line"/>
    </contour>
    <contour>
      <point x="59" y="50" type="line"/>
      <point x="501" y="50" type="line"/>
      <point x="501" y="84" type="line"/>
      <point x="59" y="84" type="line"/>
    </contour>
  </outline>
</glyph>
<glyph name="acute" format="2">
  <advance width="268"/>
  <unicode hex="00B4"/>
  <outline>
    <contour>
      <point x="55" y="609" type="line"/>
      <point x="248" y="701" type="line"/>
      <point x="232" y="732" type="line"/>
      <point x="40" y="636" type="line"/>
    </contour>
  </outline>
</glyph>
<glyph name="cedilla" format="2">
  <advance width="263"/>
  <unicode hex="00B8"/>
  <outline>
    <contour>
      <point x="131" y="-201" type="curve" smooth="yes"/>
      <point x="179" y="-201"/>
      <point x="213" y="-180"/>
      <point x="213" y="-127" type="curve" smooth="yes"/>
      <point x="213" y="-71"/>
      <point x="180" y="-57"/>
      <point x="109" y="-57" type="curve"/>
      <point x="109" y="1" type="line"/>
      <point x="76" y="1" type="line"/>
      <point x="76" y="-85" type="line"/>
      <point x="130" y="-85" type="line" smooth="yes"/>
      <point x="159" y="-85"/>
      <point x="178" y="-96"/>
      <point x="178" y="-127" type="curve" smooth="yes"/>
      <point x="178" y="-162"/>
      <point x="159" y="-173"/>
      <point x="130" y="-173" type="curve" smooth="yes"/>
      <point x="105" y="-173"/>
      <point x="71" y="-171"/>
      <point x="52" y="-169" type="curve"/>
      <point x="50" y="-197" type="line"/>
      <point x="66" y="-199"/>
      <point x="99" y="-201"/>
    </contour>
  </outline>
</glyph>
<glyph name="ordmasculine" format="2">
  <advance width="353"/>
  <unicode hex="00BA"/>
  <outline>
    <contour>
      <point x="177" y="386" type="curve" smooth="yes"/>
      <point x="253" y="386"/>
      <point x="290" y="430"/>
      <point x="290" y="524" type="curve" smooth="yes"/>
      <point x="290" y="618"/>
      <point x="253" y="659"/>
      <point x="177" y="659" type="curve" smooth="yes"/>
      <point x="101" y="659"/>
      <point x="62" y="618"/>
      <point x="62" y="524" type="curve" smooth="yes"/>
      <point x="62" y="430"/>
      <point x="101" y="386"/>
    </contour>
    <contour>
      <point x="177" y="418" type="curve" smooth="yes"/>
      <point x="120" y="418"/>
      <point x="96" y="448"/>
      <point x="96" y="524" type="curve" smooth="yes"/>
      <point x="96" y="600"/>
      <point x="120" y="627"/>
      <point x="177" y="627" type="curve" smooth="yes"/>
      <point x="234" y="627"/>
      <point x="256" y="600"/>
      <point x="256" y="524" type="curve" smooth="yes"/>
      <point x="256" y="448"/>
      <point x="234" y="418"/>
    </contour>
  </outline>
</glyph>
<glyph name="multiply" format="2">
  <advance width="560"/>
  <unicode hex="00D7"/>
  <outline>
    <contour>
      <point x="455" y="52" type="line"/>
      <point x="479" y="76" type="line"/>
      <point x="303" y="251" type="line"/>
      <point x="479" y="426" type="line"/>
      <point x="455" y="450" type="line"/>
      <point x="280" y="274" type="line"/>
      <point x="105" y="450" type="line"/>
      <point x="81" y="426" type="line"/>
      <point x="257" y="251" type="line"/>
      <point x="81" y="76" type="line"/>
      <point x="105" y="52" type="line"/>
      <point x="280" y="228" type="line"/>
    </contour>
  </outline>
</glyph>
<glyph name="Oslash" format="2">
  <advance width="666"/>
  <unicode hex="00D8"/>
  <outline>
    <contour>
      <point x="141" y="-109" type="line"/>
      <point x="381" y="402" type="line"/>
      <point x="352" y="416" type="line"/>
      <point x="111" y="-98" type="line"/>
    </contour>
    <contour>
      <point x="327" y="286" type="line"/>
      <point x="558" y="780" type="line"/>
      <point x="528" y="792" type="line"/>
      <point x="296" y="297" type="line"/>
    </contour>
    <component base="O"/>
  </outline>
</glyph>
<glyph name="ae" format="2">
  <advance width="818"/>
  <unicode hex="00E6"/>
  <outline>
    <contour>
      <point x="175" y="-9" type="curve" smooth="yes"/>
      <point x="263" y="-9"/>
      <point x="336" y="13"/>
      <point x="419" y="49" type="curve"/>
      <point x="447" y="13"/>
      <point x="493" y="-9"/>
      <point x="562" y="-9" type="curve" smooth="yes"/>
      <point x="615" y="-9"/>
      <point x="699" y="-4"/>
      <point x="747" y="0" type="curve"/>
      <point x="745" y="32" type="line"/>
      <point x="697" y="28"/>
      <point x="614" y="23"/>
      <point x="563" y="23" type="curve" smooth="yes"/>
      <point x="447" y="23"/>
      <point x="411" y="98"/>
      <point x="411" y="236" type="curve"/>
      <point x="766" y="236" type="line"/>
      <point x="766" y="269" type="line" smooth="yes"/>
      <point x="766" y="442"/>
      <point x="699" y="509"/>
      <point x="576" y="509" type="curve" smooth="yes"/>
      <point x="502" y="509"/>
      <point x="440" y="484"/>
      <point x="404" y="413" type="curve"/>
      <point x="388" y="477"/>
      <point x="343" y="509"/>
      <point x="265" y="509" type="curve" smooth="yes"/>
      <point x="207" y="509"/>
      <point x="122" y="503"/>
      <point x="75" y="499" type="curve"/>
      <point x="77" y="466" type="line"/>
      <point x="126" y="470"/>
      <point x="211" y="475"/>
      <point x="265" y="475" type="curve" smooth="yes"/>
      <point x="337" y="475"/>
      <point x="376" y="441"/>
      <point x="376" y="353" type="curve" smooth="yes"/>
      <point x="376" y="301" type="line"/>
      <point x="233" y="286" type="line" smooth="yes"/>
      <point x="100" y="269"/>
      <point x="48" y="249"/>
      <point x="48" y="137" type="curve" smooth="yes"/>
      <point x="48" y="39"/>
      <point x="93" y="-9"/>
    </contour>
    <contour>
      <point x="176" y="23" type="curve" smooth="yes"/>
      <point x="120" y="23"/>
      <point x="85" y="63"/>
      <point x="85" y="137" type="curve" smooth="yes"/>
      <point x="85" y="209"/>
      <point x="116" y="243"/>
      <point x="190" y="250" type="curve" smooth="yes"/>
      <point x="374" y="268" type="line"/>
      <point x="374" y="186"/>
      <point x="380" y="121"/>
      <point x="404" y="74" type="curve"/>
      <point x="387" y="67"/>
      <point x="269" y="23"/>
    </contour>
    <contour>
      <point x="411" y="268" type="line"/>
      <point x="411" y="419"/>
      <point x="476" y="477"/>
      <point x="576" y="477" type="curve" smooth="yes"/>
      <point x="680" y="477"/>
      <point x="729" y="421"/>
      <point x="729" y="268" type="curve"/>
    </contour>
  </outline>
</glyph>
<glyph name="divide" format="2">
  <advance width="560"/>
  <unicode hex="00F7"/>
  <outline>
    <contour>
      <point x="58" y="234" type="line"/>
      <point x="502" y="234" type="line"/>
      <point x="502" y="268" type="line"/>
      <point x="58" y="268" type="line"/>
    </contour>
    <contour>
      <point x="261" y="39" type="line"/>
      <point x="299" y="39" type="line"/>
      <point x="299" y="119" type="line"/>
      <point x="261" y="119" type="line"/>
    </contour>
    <contour>
      <point x="261" y="383" type="line"/>
      <point x="299" y="383" type="line"/>
      <point x="299" y="463" type="line"/>
      <point x="261" y="463" type="line"/>
    </contour>
  </outline>
</glyph>
<glyph name="oslash" format="2">
  <advance width="526"/>
  <unicode hex="00F8"/>
  <outline>
    <contour>
      <point x="238" y="142" type="line"/>
      <point x="423" y="594" type="line"/>
      <point x="393" y="605" type="line"/>
      <point x="212" y="164" type="line"/>
    </contour>
    <contour>
      <point x="133" y="-114" type="line"/>
      <point x="299" y="292" type="line"/>
      <point x="274" y="314" type="line"/>
      <point x="103" y="-103" type="line"/>
    </contour>
    <component base="o"/>
  </outline>
</glyph>
<glyph name="thorn" format="2">
  <advance width="515"/>
  <unicode hex="00FE"/>
  <outline>
    <contour>
      <point x="79" y="-230" type="line"/>
      <point x="114" y="-230" type="line"/>
      <point x="114" y="-3" type="line"/>
      <point x="145" y="-6"/>
      <point x="198" y="-9"/>
      <point x="228" y="-9" type="curve" smooth="yes"/>
      <point x="414" y="-9"/>
      <point x="456" y="74"/>
      <point x="456" y="261" type="curve" smooth="yes"/>
      <point x="456" y="433"/>
      <point x="422" y="509"/>
      <point x="286" y="509" type="curve" smooth="yes"/>
      <point x="221" y="509"/>
      <point x="150" y="486"/>
      <point x="114" y="469" type="curve"/>
      <point x="114" y="730" type="line"/>
      <point x="79" y="730" type="line"/>
    </contour>
    <contour>
      <point x="227" y="23" type="curve" smooth="yes"/>
      <point x="201" y="23"/>
      <point x="148" y="26"/>
      <point x="114" y="29" type="curve"/>
      <point x="114" y="437" type="line"/>
      <point x="150" y="454"/>
      <point x="221" y="477"/>
      <point x="286" y="477" type="curve" smooth="yes"/>
      <point x="397" y="477"/>
      <point x="419" y="409"/>
      <point x="419" y="259" type="curve" smooth="yes"/>
      <point x="419" y="100"/>
      <point x="394" y="23"/>
    </contour>
  </outline>
</glyph>
<glyph name="dcaron" format="2">
  <advance width="515"/>
  <unicode hex="010F"/>
  <outline>
    <contour>
      <point x="500" y="498" type="line"/>
      <point x="528" y="498" type="line"/>
      <point x="574" y="687" type="line"/>
      <point x="537" y="687" type="line"/>
    </contour>
    <component base="d"/>
  </outline>
</glyph>
<glyph name="Dcroat" format="2">
  <advance width="651"/>
  <unicode hex="0110"/>
  <outline>
    <contour>
      <point x="17" y="334" type="line"/>
      <point x="307" y="334" type="line"/>
      <point x="307" y="368" type="line"/>
      <point x="17" y="368" type="line"/>
    </contour>
    <component base="D" xOffset="2"/>
  </outline>
</glyph>
<glyph name="dcroat" format="2">
  <advance width="515"/>
  <unicode hex="0111"/>
  <outline>
    <contour>
      <point x="228" y="622" type="line"/>
      <point x="495" y="622" type="line"/>
      <point x="495" y="654" type="line"/>
      <point x="228" y="654" type="line"/>
    </contour>
    <component base="d"/>
  </outline>
</glyph>
<glyph name="hbar" format="2">
  <advance width="526"/>
  <unicode hex="0127"/>
  <outline>
    <contour>
      <point x="8" y="612" type="line"/>
      <point x="275" y="612" type="line"/>
      <point x="275" y="644" type="line"/>
      <point x="8" y="644" type="line"/>
    </contour>
    <component base="h"/>
  </outline>
</glyph>
<glyph name="Kcommaaccent" format="2">
  <advance width="553"/>
  <unicode hex="0136"/>
  <outline>
    <contour>
      <point x="240" y="-267" type="line"/>
      <point x="268" y="-267" type="line"/>
      <point x="314" y="-78" type="line"/>
      <point x="277" y="-78" type="line"/>
    </contour>
    <component base="K"/>
  </outline>
</glyph>
<glyph name="kcommaaccent" format="2">
  <advance width="455"/>
  <unicode hex="0137"/>
  <outline>
    <contour>
      <point x="173" y="-267" type="line"/>
      <point x="201" y="-267" type="line"/>
      <point x="247" y="-78" type="line"/>
      <point x="210" y="-78" type="line"/>
    </contour>
    <component base="k"/>
  </outline>
</glyph>
<glyph name="Lcommaaccent" format="2">
  <advance width="483"/>
  <unicode hex="013B"/>
  <outline>
    <contour>
      <point x="228" y="-267" type="line"/>
      <point x="256" y="-267" type="line"/>
      <point x="302" y="-78" type="line"/>
      <point x="265" y="-78" type="line"/>
    </contour>
    <component base="L"/>
  </outline>
</glyph>
<glyph name="Lslash" format="2">
  <advance width="485"/>
  <unicode hex="0141"/>
  <outline>
    <contour>
      <point x="28" y="262" type="line"/>
      <point x="320" y="467" type="line"/>
      <point x="301" y="493" type="line"/>
      <point x="9" y="288" type="line"/>
    </contour>
    <component base="L" xOffset="2"/>
  </outline>
</glyph>
<glyph name="lslash" format="2">
  <advance width="263"/>
  <unicode hex="0142"/>
  <outline>
    <contour>
      <point x="33" y="265" type="line"/>
      <point x="246" y="414" type="line"/>
      <point x="227" y="441" type="line"/>
      <point x="14" y="292" type="line"/>
    </contour>
    <component base="l" xOffset="26"/>
  </outline>
</glyph>
<glyph name="Ncommaaccent" format="2">
  <advance width="665"/>
  <unicode hex="0145"/>
  <outline>
    <contour>
      <point x="303" y="-267" type="line"/>
      <point x="331" y="-267" type="line"/>
      <point x="377" y="-78" type="line"/>
      <point x="340" y="-78" type="line"/>
    </contour>
    <component base="N"/>
  </outline>
</glyph>
<glyph name="ncommaaccent" format="2">
  <advance width="527"/>
  <unicode hex="0146"/>
  <outline>
    <contour>
      <point x="219" y="-267" type="line"/>
      <point x="247" y="-267" type="line"/>
      <point x="293" y="-78" type="line"/>
      <point x="256" y="-78" type="line"/>
    </contour>
    <component base="n"/>
  </outline>
</glyph>
<glyph name="OE" format="2">
  <advance width="940"/>
  <unicode hex="0152"/>
  <outline>
    <contour>
      <point x="333" y="-9" type="curve" smooth="yes"/>
      <point x="370" y="-9"/>
      <point x="449" y="-5"/>
      <point x="491" y="-1" type="curve"/>
      <point x="889" y="-1" type="line"/>
      <point x="889" y="36" type="line"/>
      <point x="526" y="36" type="line"/>
      <point x="526" y="342" type="line"/>
      <point x="829" y="342" type="line"/>
      <point x="829" y="378" type="line"/>
      <point x="526" y="378" type="line"/>
      <point x="526" y="664" type="line"/>
      <point x="889" y="664" type="line"/>
      <point x="889" y="700" type="line"/>
      <point x="491" y="700" type="line"/>
      <point x="449" y="704"/>
      <point x="370" y="708"/>
      <point x="333" y="708" type="curve" smooth="yes"/>
      <point x="117" y="708"/>
      <point x="65" y="584"/>
      <point x="65" y="354" type="curve" smooth="yes"/>
      <point x="65" y="124"/>
      <point x="117" y="-9"/>
    </contour>
    <contour>
      <point x="333" y="25" type="curve" smooth="yes"/>
      <point x="140" y="25"/>
      <point x="103" y="140"/>
      <point x="103" y="350" type="curve" smooth="yes"/>
      <point x="103" y="560"/>
      <point x="140" y="674"/>
      <point x="333" y="674" type="curve" smooth="yes"/>
      <point x="355" y="674"/>
      <point x="455" y="668"/>
      <point x="490" y="665" type="curve"/>
      <point x="490" y="34" type="line"/>
      <point x="455" y="31"/>
      <point x="355" y="25"/>
    </contour>
  </outline>
</glyph>
<glyph name="oe" format="2">
  <advance width="873"/>
  <unicode hex="0153"/>
  <outline>
    <contour>
      <point x="265" y="-9" type="curve" smooth="yes"/>
      <point x="371" y="-9"/>
      <point x="424" y="24"/>
      <point x="448" y="98" type="curve"/>
      <point x="473" y="30"/>
      <point x="523" y="-9"/>
      <point x="617" y="-9" type="curve" smooth="yes"/>
      <point x="670" y="-9"/>
      <point x="754" y="-4"/>
      <point x="802" y="0" type="curve"/>
      <point x="800" y="32" type="line"/>
      <point x="752" y="28"/>
      <point x="669" y="23"/>
      <point x="618" y="23" type="curve" smooth="yes"/>
      <point x="502" y="23"/>
      <point x="466" y="98"/>
      <point x="466" y="236" type="curve"/>
      <point x="821" y="236" type="line"/>
      <point x="821" y="269" type="line"/>
      <point x="821" y="442"/>
      <point x="754" y="509"/>
      <point x="631" y="509" type="curve" smooth="yes"/>
      <point x="550" y="509"/>
      <point x="482" y="478"/>
      <point x="449" y="389" type="curve"/>
      <point x="422" y="474"/>
      <point x="361" y="509"/>
      <point x="265" y="509" type="curve" smooth="yes"/>
      <point x="117" y="509"/>
      <point x="60" y="446"/>
      <point x="60" y="261" type="curve" smooth="yes"/>
      <point x="60" y="60"/>
      <point x="99" y="-9"/>
    </contour>
    <contour>
      <point x="265" y="23" type="curve" smooth="yes"/>
      <point x="118" y="23"/>
      <point x="97" y="89"/>
      <point x="97" y="261" type="curve" smooth="yes"/>
      <point x="97" y="429"/>
      <point x="137" y="477"/>
      <point x="265" y="477" type="curve" smooth="yes"/>
      <point x="376" y="477"/>
      <point x="429" y="419"/>
      <point x="429" y="259" type="curve" smooth="yes"/>
      <point x="429" y="100"/>
      <point x="412" y="23"/>
    </contour>
    <contour>
      <point x="466" y="268" type="line"/>
      <point x="466" y="419"/>
      <point x="531" y="477"/>
      <point x="631" y="477" type="curve" smooth="yes"/>
      <point x="735" y="477"/>
      <point x="784" y="421"/>
      <point x="784" y="268" type="curve"/>
    </contour>
  </outline>
</glyph>
<glyph name="rcommaaccent" format="2">
  <advance width="328"/>
  <unicode hex="0157"/>
  <outline>
    <contour>
      <point x="42" y="-267" type="line"/>
      <point x="70" y="-267" type="line"/>
      <point x="116" y="-78" type="line"/>
      <point x="79" y="-78" type="line"/>
    </contour>
    <component base="r"/>
  </outline>
</glyph>
<glyph name="Tbar" format="2">
  <advance width="530"/>
  <unicode hex="0166"/>
  <outline>
    <contour>
      <point x="65" y="332" type="line"/>
      <point x="465" y="332" type="line"/>
      <point x="465" y="364" type="line"/>
      <point x="65" y="364" type="line"/>
    </contour>
    <component base="T" xOffset="2"/>
  </outline>
</glyph>
<glyph name="Scommaaccent" format="2">
  <advance width="540"/>
  <unicode hex="0218"/>
  <outline>
    <contour>
      <point x="235" y="-267" type="line"/>
      <point x="263" y="-267" type="line"/>
      <point x="309" y="-78" type="line"/>
      <point x="272" y="-78" type="line"/>
    </contour>
    <component base="S"/>
  </outline>
</glyph>
<glyph name="scommaaccent" format="2">
  <advance width="461"/>
  <unicode hex="0219"/>
  <outline>
    <contour>
      <point x="196" y="-267" type="line"/>
      <point x="224" y="-267" type="line"/>
      <point x="270" y="-78" type="line"/>
      <point x="233" y="-78" type="line"/>
    </contour>
    <component base="s"/>
  </outline>
</glyph>
<glyph name="Tcommaaccent" format="2">
  <advance width="526"/>
  <unicode hex="021A"/>
  <outline>
    <contour>
      <point x="225" y="-267" type="line"/>
      <point x="253" y="-267" type="line"/>
      <point x="299" y="-78" type="line"/>
      <point x="262" y="-78" type="line"/>
    </contour>
    <component base="T"/>
  </outline>
</glyph>
<glyph name="tcommaaccent" format="2">
  <advance width="342"/>
  <unicode hex="021B"/>
  <outline>
    <contour>
      <point x="166" y="-267" type="line"/>
      <point x="194" y="-267" type="line"/>
      <point x="240" y="-78" type="line"/>
      <point x="203" y="-78" type="line"/>
    </contour>
    <component base="t"/>
  </outline>
</glyph>
<glyph name="dotlessj" format="2">
  <advance width="192"/>
  <unicode hex="0237"/>
  <outline>
    <contour>
      <point x="-45" y="-218" type="line"/>
      <point x="84" y="-152"/>
      <point x="114" y="-107"/>
      <point x="114" y="5" type="curve" smooth="yes"/>
      <point x="114" y="500" type="line"/>
      <point x="79" y="500" type="line"/>
      <point x="79" y="6" type="line" smooth="yes"/>
      <point x="79" y="-92"/>
      <point x="55" y="-125"/>
      <point x="-59" y="-187" type="curve"/>
    </contour>
  </outline>
</glyph>
<glyph name="breve" format="2">
  <advance width="215"/>
  <unicode hex="02D8"/>
  <outline>
    <contour>
      <point x="123" y="595" type="curve" smooth="yes"/>
      <point x="207" y="595"/>
      <point x="261" y="649"/>
      <point x="261" y="723" type="curve"/>
      <point x="226" y="723" type="line"/>
      <point x="226" y="668"/>
      <point x="188" y="627"/>
      <point x="123" y="627" type="curve" smooth="yes"/>
      <point x="58" y="627"/>
      <point x="20" y="668"/>
      <point x="20" y="723" type="curve"/>
      <point x="-15" y="723" type="line"/>
      <point x="-15" y="649"/>
      <point x="39" y="595"/>
    </contour>
  </outline>
</glyph>
<glyph name="ogonek" format="2">
  <advance width="434"/>
  <unicode hex="02DB"/>
  <outline>
    <contour>
      <point x="250" y="-200" type="curve" smooth="yes"/>
      <point x="268" y="-200"/>
      <point x="296" y="-195"/>
      <point x="312" y="-192" type="curve"/>
      <point x="304" y="-159" type="line"/>
      <point x="289" y="-162"/>
      <point x="265" y="-166"/>
      <point x="251" y="-166" type="curve" smooth="yes"/>
      <point x="220" y="-166"/>
      <point x="204" y="-147"/>
      <point x="204" y="-126" type="curve" smooth="yes"/>
      <point x="204" y="-93"/>
      <point x="239" y="-45"/>
      <point x="285" y="0" type="curve"/>
      <point x="251" y="6" type="line"/>
      <point x="215" y="-26"/>
      <point x="168" y="-84"/>
      <point x="168" y="-125" type="curve" smooth="yes"/>
      <point x="168" y="-153"/>
      <point x="189" y="-200"/>
    </contour>
  </outline>
</glyph>
<glyph name="hungarumlaut" format="2">
  <advance width="215"/>
  <unicode hex="02DD"/>
  <outline>
    <contour>
      <point x="-33" y="595" type="line"/>
      <point x="130" y="699" type="line"/>
      <point x="112" y="726" type="line"/>
      <point x="-51" y="622" type="line"/>
    </contour>
    <contour>
      <point x="152" y="595" type="line"/>
      <point x="315" y="699" type="line"/>
      <point x="297" y="725" type="line"/>
      <point x="134" y="622" type="line"/>
    </contour>
  </outline>
</glyph>
<glyph name="commaaccentcomb" format="2">
  <unicode hex="0326"/>
  <anchor x="92" y="0" name="_bottom"/>
  <outline>
    <contour>
      <point x="42" y="-267" type="line"/>
      <point x="70" y="-267" type="line"/>
      <point x="116" y="-78" type="line"/>
      <point x="79" y="-78" type="line"/>
    </contour>
  </outline>
</glyph>
<glyph name="comma-ar" format="2">
  <advance width="193"/>
  <unicode hex="060C"/>
  <outline>
    <contour>
      <point x="143" y="210" type="line"/>
      <point x="112" y="210" type="line"/>
      <point x="61" y="0" type="line"/>
      <point x="101" y="0" type="line"/>
    </contour>
  </outline>
</glyph>
<glyph name="tahabove-ar" format="2">
  <unicode hex="0615"/>
  <anchor x="109" y="515" name="_top"/>
  <anchor x="109" y="676" name="top"/>
  <outline>
    <contour>
      <point x="47" y="549" type="curve"/>
      <point x="82" y="549" type="line"/>
      <point x="82" y="571"/>
      <point x="99" y="588"/>
      <point x="122" y="588" type="curve" smooth="yes"/>
      <point x="145" y="588"/>
      <point x="162" y="571"/>
      <point x="162" y="549" type="curve"/>
      <point x="197" y="549" type="line"/>
      <point x="197" y="593"/>
      <point x="161" y="622"/>
      <point x="122" y="622" type="curve" smooth="yes"/>
      <point x="83" y="622"/>
      <point x="47" y="593"/>
    </contour>
    <contour>
      <point x="20" y="515" type="line"/>
      <point x="197" y="515" type="line"/>
      <point x="197" y="549" type="line"/>
      <point x="20" y="549" type="line"/>
    </contour>
    <contour>
      <point x="47" y="549" type="line"/>
      <point x="82" y="549" type="line"/>
      <point x="82" y="656" type="line"/>
      <point x="47" y="656" type="line"/>
    </contour>
  </outline>
</glyph>
<glyph name="semicolon-ar" format="2">
  <advance width="228"/>
  <unicode hex="061B"/>
  <outline>
    <contour>
      <point x="166" y="547" type="line"/>
      <point x="135" y="547" type="line"/>
      <point x="83" y="337" type="line"/>
      <point x="125" y="337" type="line"/>
    </contour>
    <contour>
      <point x="128" y="80" type="line"/>
      <point x="88" y="80" type="line"/>
      <point x="88" y="0" type="line"/>
      <point x="128" y="0" type="line"/>
    </contour>
  </outline>
</glyph>
<glyph name="question-ar" format="2">
  <advance width="453"/>
  <unicode hex="061F"/>
  <outline>
    <contour>
      <point x="279" y="190" type="line"/>
      <point x="279" y="204"/>
      <point x="280" y="217"/>
      <point x="280" y="231" type="curve" smooth="yes"/>
      <point x="280" y="296"/>
      <point x="225" y="344"/>
      <point x="173" y="391" type="curve" smooth="yes"/>
      <point x="102" y="455"/>
      <point x="81" y="482"/>
      <point x="81" y="551" type="curve" smooth="yes"/>
      <point x="81" y="647"/>
      <point x="140" y="676"/>
      <point x="246" y="676" type="curve" smooth="yes"/>
      <point x="281" y="676"/>
      <point x="358" y="660"/>
      <point x="407" y="648" type="curve"/>
      <point x="412" y="682" type="line"/>
      <point x="364" y="694"/>
      <point x="285" y="709"/>
      <point x="246" y="709" type="curve" smooth="yes"/>
      <point x="119" y="709"/>
      <point x="46" y="668"/>
      <point x="46" y="551" type="curve" smooth="yes"/>
      <point x="46" y="469"/>
      <point x="63" y="443"/>
      <point x="147" y="369" type="curve" smooth="yes"/>
      <point x="198" y="324"/>
      <point x="245" y="284"/>
      <point x="245" y="228" type="curve" smooth="yes"/>
      <point x="245" y="190" type="line"/>
    </contour>
    <contour>
      <point x="282" y="1" type="line"/>
      <point x="282" y="81" type="line"/>
      <point x="242" y="81" type="line"/>
      <point x="242" y="1" type="line"/>
    </contour>
  </outline>
</glyph>
<glyph name="alef-ar" format="2">
  <advance width="235"/>
  <unicode hex="0627"/>
  <anchor x="118" y="-60" name="bottom"/>
  <anchor x="118" y="763" name="top"/>
  <outline>
    <contour>
      <point x="100" y="0" type="line"/>
      <point x="135" y="0" type="line"/>
      <point x="135" y="730" type="line"/>
      <point x="100" y="730" type="line"/>
    </contour>
  </outline>
</glyph>
<glyph name="jeem-ar" format="2">
  <advance width="569"/>
  <unicode hex="062C"/>
  <outline>
    <contour>
      <point x="331" y="-165" type="line"/>
      <point x="366" y="-165" type="line"/>
      <point x="366" y="-110" type="line"/>
      <point x="331" y="-110" type="line"/>
    </contour>
    <component base="hah-ar.alt"/>
  </outline>
</glyph>
<glyph name="hah-ar" format="2">
  <advance width="569"/>
  <unicode hex="062D"/>
  <anchor x="281" y="-400" name="bottom"/>
  <anchor x="349" y="-137" name="center"/>
  <anchor x="281" y="573" name="top"/>
  <outline>
    <contour>
      <point x="395" y="-261" type="line"/>
      <point x="328" y="-270"/>
      <point x="285" y="-274"/>
      <point x="251" y="-274" type="curve" smooth="yes"/>
      <point x="133" y="-274"/>
      <point x="75" y="-227"/>
      <point x="75" y="-137" type="curve" smooth="yes"/>
      <point x="75" y="-46"/>
      <point x="133" y="0"/>
      <point x="253" y="0" type="curve" smooth="yes"/>
      <point x="474" y="0" type="line"/>
      <point x="474" y="34" type="line"/>
      <point x="253" y="34" type="line" smooth="yes"/>
      <point x="116" y="34"/>
      <point x="40" y="-25"/>
      <point x="40" y="-137" type="curve" smooth="yes"/>
      <point x="40" y="-249"/>
      <point x="117" y="-308"/>
      <point x="252" y="-308" type="curve" smooth="yes"/>
      <point x="305" y="-308"/>
      <point x="361" y="-299"/>
      <point x="401" y="-290" type="curve"/>
    </contour>
    <contour>
      <point x="92" y="446" type="line"/>
      <point x="186" y="459"/>
      <point x="241" y="465"/>
      <point x="284" y="465" type="curve" smooth="yes"/>
      <point x="410" y="465"/>
      <point x="474" y="416"/>
      <point x="474" y="317" type="curve" smooth="yes"/>
      <point x="474" y="0" type="line"/>
      <point x="509" y="0" type="line"/>
      <point x="509" y="317" type="line" smooth="yes"/>
      <point x="509" y="437"/>
      <point x="428" y="500"/>
      <point x="281" y="500" type="curve" smooth="yes"/>
      <point x="214" y="500"/>
      <point x="140" y="487"/>
      <point x="88" y="475" type="curve"/>
    </contour>
  </outline>
</glyph>
<glyph name="dal-ar" format="2">
  <advance width="487"/>
  <unicode hex="062F"/>
  <anchor x="236" y="-100" name="bottom"/>
  <anchor x="152" y="573" name="top"/>
  <outline>
    <contour>
      <point x="40" y="0" type="line"/>
      <point x="427" y="0" type="line"/>
      <point x="427" y="232" type="line" smooth="yes"/>
      <point x="427" y="433"/>
      <point x="333" y="500"/>
      <point x="173" y="500" type="curve" smooth="yes"/>
      <point x="92" y="500" type="line"/>
      <point x="92" y="466" type="line"/>
      <point x="173" y="466" type="line" smooth="yes"/>
      <point x="329" y="466"/>
      <point x="392" y="399"/>
      <point x="392" y="232" type="curve" smooth="yes"/>
      <point x="392" y="10" type="line"/>
      <point x="417" y="34" type="line"/>
      <point x="40" y="34" type="line"/>
    </contour>
  </outline>
</glyph>
<glyph name="reh-ar" format="2">
  <advance width="259"/>
  <unicode hex="0631"/>
  <anchor x="109" y="-350" name="bottom"/>
  <anchor x="162" y="573" name="top"/>
  <outline>
    <contour>
      <point x="-4" y="-247" type="curve" smooth="yes"/>
      <point x="104" y="-247"/>
      <point x="179" y="-165"/>
      <point x="179" y="-42" type="curve" smooth="yes"/>
      <point x="179" y="500" type="line"/>
      <point x="144" y="500" type="line"/>
      <point x="144" y="-42" type="line" smooth="yes"/>
      <point x="144" y="-145"/>
      <point x="85" y="-213"/>
      <point x="-4" y="-213" type="curve" smooth="yes"/>
      <point x="-19" y="-213"/>
      <point x="-38" y="-211"/>
      <point x="-56" y="-209" type="curve"/>
      <point x="-60" y="-243" type="line"/>
      <point x="-42" y="-245"/>
      <point x="-21" y="-247"/>
    </contour>
  </outline>
</glyph>
<glyph name="seen-ar" format="2">
  <advance width="1161"/>
  <unicode hex="0633"/>
  <anchor x="800" y="-100" name="bottom"/>
  <anchor x="800" y="573" name="top"/>
  <outline>
    <contour>
      <point x="303" y="-248" type="curve" smooth="yes"/>
      <point x="434" y="-248"/>
      <point x="555" y="-179"/>
      <point x="555" y="-40" type="curve" smooth="yes"/>
      <point x="555" y="450" type="line"/>
      <point x="520" y="450" type="line"/>
      <point x="520" y="-40" type="line" smooth="yes"/>
      <point x="520" y="-145"/>
      <point x="434" y="-214"/>
      <point x="303" y="-214" type="curve" smooth="yes"/>
      <point x="170" y="-214"/>
      <point x="75" y="-139"/>
      <point x="75" y="-35" type="curve" smooth="yes"/>
      <point x="75" y="7"/>
      <point x="91" y="128"/>
      <point x="115" y="267" type="curve"/>
      <point x="80" y="273" type="line"/>
      <point x="63" y="173"/>
      <point x="40" y="21"/>
      <point x="40" y="-35" type="curve" smooth="yes"/>
      <point x="40" y="-162"/>
      <point x="156" y="-248"/>
    </contour>
    <contour>
      <point x="555" y="0" type="line"/>
      <point x="691" y="0" type="line" smooth="yes"/>
      <point x="782" y="0"/>
      <point x="818" y="34"/>
      <point x="818" y="178" type="curve" smooth="yes"/>
      <point x="818" y="450" type="line"/>
      <point x="783" y="450" type="line"/>
      <point x="783" y="178" type="line" smooth="yes"/>
      <point x="783" y="58"/>
      <point x="764" y="34"/>
      <point x="691" y="34" type="curve" smooth="yes"/>
      <point x="555" y="34" type="line"/>
    </contour>
    <contour>
      <point x="884" y="0" type="curve" smooth="yes"/>
      <point x="1081" y="0" type="line"/>
      <point x="1081" y="278" type="line" smooth="yes"/>
      <point x="1081" y="331"/>
      <point x="1064" y="432"/>
      <point x="1049" y="500" type="curve"/>
      <point x="1015" y="493" type="line"/>
      <point x="1033" y="411"/>
      <point x="1046" y="320"/>
      <point x="1046" y="278" type="curve" smooth="yes"/>
      <point x="1046" y="0" type="line"/>
      <point x="1081" y="34" type="line"/>
      <point x="884" y="34" type="line" smooth="yes"/>
      <point x="849" y="34"/>
      <point x="818" y="47"/>
      <point x="785" y="76" type="curve"/>
      <point x="762" y="51" type="line"/>
      <point x="802" y="15"/>
      <point x="843" y="0"/>
    </contour>
  </outline>
</glyph>
<glyph name="sad-ar" format="2">
  <advance width="1170"/>
  <unicode hex="0635"/>
  <anchor x="811" y="-100" name="bottom"/>
  <anchor x="811" y="573" name="top"/>
  <outline>
    <contour>
      <point x="303" y="-248" type="curve" smooth="yes"/>
      <point x="434" y="-248"/>
      <point x="555" y="-179"/>
      <point x="555" y="-40" type="curve" smooth="yes"/>
      <point x="555" y="500" type="line"/>
      <point x="520" y="500" type="line"/>
      <point x="520" y="-40" type="line" smooth="yes"/>
      <point x="520" y="-145"/>
      <point x="434" y="-214"/>
      <point x="303" y="-214" type="curve" smooth="yes"/>
      <point x="170" y="-214"/>
      <point x="75" y="-139"/>
      <point x="75" y="-35" type="curve" smooth="yes"/>
      <point x="75" y="7"/>
      <point x="91" y="128"/>
      <point x="115" y="267" type="curve"/>
      <point x="80" y="273" type="line"/>
      <point x="63" y="173"/>
      <point x="40" y="21"/>
      <point x="40" y="-35" type="curve" smooth="yes"/>
      <point x="40" y="-162"/>
      <point x="156" y="-248"/>
    </contour>
    <contour>
      <point x="555" y="0" type="line"/>
      <point x="1090" y="0" type="line"/>
      <point x="1090" y="241" type="line" smooth="yes"/>
      <point x="1090" y="353"/>
      <point x="1047" y="500"/>
      <point x="857" y="500" type="curve" smooth="yes"/>
      <point x="691" y="500"/>
      <point x="611" y="388"/>
      <point x="528" y="285" type="curve"/>
      <point x="555" y="264" type="line"/>
      <point x="641" y="371"/>
      <point x="713" y="466"/>
      <point x="856" y="466" type="curve" smooth="yes"/>
      <point x="988" y="466"/>
      <point x="1055" y="385"/>
      <point x="1055" y="241" type="curve" smooth="yes"/>
      <point x="1055" y="10" type="line"/>
      <point x="1080" y="34" type="line"/>
      <point x="555" y="34" type="line"/>
    </contour>
  </outline>
</glyph>
<glyph name="ain-ar" format="2">
  <advance width="521"/>
  <unicode hex="0639"/>
  <anchor x="281" y="-400" name="bottom"/>
  <anchor x="279" y="573" name="top"/>
  <outline>
    <contour>
      <point x="252" y="-308" type="curve" smooth="yes"/>
      <point x="305" y="-308"/>
      <point x="361" y="-299"/>
      <point x="401" y="-290" type="curve"/>
      <point x="395" y="-261" type="line"/>
      <point x="328" y="-270"/>
      <point x="285" y="-274"/>
      <point x="251" y="-274" type="curve" smooth="yes"/>
      <point x="133" y="-274"/>
      <point x="75" y="-227"/>
      <point x="75" y="-137" type="curve" smooth="yes"/>
      <point x="75" y="-46"/>
      <point x="133" y="0"/>
      <point x="253" y="0" type="curve" smooth="yes"/>
      <point x="461" y="0" type="line"/>
      <point x="461" y="34" type="line"/>
      <point x="253" y="34" type="line" smooth="yes"/>
      <point x="116" y="34"/>
      <point x="40" y="-24"/>
      <point x="40" y="-137" type="curve" smooth="yes"/>
      <point x="40" y="-249"/>
      <point x="117" y="-308"/>
    </contour>
    <contour>
      <point x="166" y="3" type="curve"/>
      <point x="189" y="29" type="line"/>
      <point x="124" y="84"/>
      <point x="90" y="155"/>
      <point x="90" y="235" type="curve" smooth="yes"/>
      <point x="90" y="368"/>
      <point x="186" y="466"/>
      <point x="316" y="466" type="curve" smooth="yes"/>
      <point x="353" y="466"/>
      <point x="395" y="458"/>
      <point x="431" y="445" type="curve"/>
      <point x="443" y="477" type="line"/>
      <point x="402" y="492"/>
      <point x="355" y="500"/>
      <point x="316" y="500" type="curve" smooth="yes"/>
      <point x="168" y="500"/>
      <point x="55" y="388"/>
      <point x="55" y="235" type="curve" smooth="yes"/>
      <point x="55" y="145"/>
      <point x="94" y="64"/>
    </contour>
  </outline>
</glyph>
<glyph name="lam-ar" format="2">
  <advance width="635"/>
  <unicode hex="0644"/>
  <anchor x="308" y="-330" name="bottom"/>
  <anchor x="538" y="800" name="top"/>
  <outline>
    <contour>
      <point x="303" y="-248" type="curve" smooth="yes"/>
      <point x="434" y="-248"/>
      <point x="555" y="-179"/>
      <point x="555" y="-40" type="curve" smooth="yes"/>
      <point x="555" y="730" type="line"/>
      <point x="520" y="730" type="line"/>
      <point x="520" y="-40" type="line" smooth="yes"/>
      <point x="520" y="-145"/>
      <point x="434" y="-214"/>
      <point x="303" y="-214" type="curve" smooth="yes"/>
      <point x="170" y="-214"/>
      <point x="75" y="-139"/>
      <point x="75" y="-35" type="curve" smooth="yes"/>
      <point x="75" y="7"/>
      <point x="91" y="128"/>
      <point x="115" y="267" type="curve"/>
      <point x="80" y="273" type="line"/>
      <point x="63" y="173"/>
      <point x="40" y="21"/>
      <point x="40" y="-35" type="curve" smooth="yes"/>
      <point x="40" y="-162"/>
      <point x="156" y="-248"/>
    </contour>
  </outline>
</glyph>
<glyph name="waw-ar" format="2">
  <advance width="523"/>
  <unicode hex="0648"/>
  <anchor x="263" y="-350" name="bottom"/>
  <anchor x="263" y="573" name="top"/>
  <outline>
    <contour>
      <point x="249" y="-246" type="curve" smooth="yes"/>
      <point x="378" y="-246"/>
      <point x="443" y="-165"/>
      <point x="443" y="-42" type="curve" smooth="yes"/>
      <point x="443" y="500" type="line"/>
      <point x="263" y="500" type="line" smooth="yes"/>
      <point x="88" y="500"/>
      <point x="40" y="422"/>
      <point x="40" y="250" type="curve" smooth="yes"/>
      <point x="40" y="78"/>
      <point x="88" y="0"/>
      <point x="263" y="0" type="curve" smooth="yes"/>
      <point x="408" y="0" type="line"/>
      <point x="408" y="34" type="line"/>
      <point x="263" y="34" type="line" smooth="yes"/>
      <point x="119" y="34"/>
      <point x="75" y="84"/>
      <point x="75" y="250" type="curve" smooth="yes"/>
      <point x="75" y="416"/>
      <point x="119" y="466"/>
      <point x="263" y="466" type="curve" smooth="yes"/>
      <point x="423" y="466" type="line"/>
      <point x="408" y="480" type="line"/>
      <point x="408" y="-42" type="line" smooth="yes"/>
      <point x="408" y="-153"/>
      <point x="352" y="-212"/>
      <point x="249" y="-212" type="curve" smooth="yes"/>
      <point x="215" y="-212"/>
      <point x="167" y="-206"/>
      <point x="116" y="-195" type="curve"/>
      <point x="109" y="-228" type="line"/>
      <point x="155" y="-238"/>
      <point x="208" y="-246"/>
    </contour>
  </outline>
</glyph>
<glyph name="madda-ar" format="2">
  <unicode hex="0653"/>
  <anchor x="126" y="596" name="_top"/>
  <anchor x="126" y="733" name="top"/>
  <outline>
    <contour>
      <point x="40" y="593" type="line"/>
      <point x="94" y="647" type="line"/>
      <point x="60" y="653" type="line"/>
      <point x="72" y="614"/>
      <point x="112" y="596"/>
      <point x="147" y="596" type="curve" smooth="yes"/>
      <point x="191" y="596"/>
      <point x="226" y="624"/>
      <point x="238" y="663" type="curve"/>
      <point x="237" y="643" type="line"/>
      <point x="219" y="660" type="line"/>
      <point x="227" y="674" type="line"/>
      <point x="218" y="644"/>
      <point x="184" y="630"/>
      <point x="154" y="630" type="curve" smooth="yes"/>
      <point x="124" y="630"/>
      <point x="91" y="644"/>
      <point x="81" y="674" type="curve"/>
      <point x="113" y="660" type="line"/>
      <point x="58" y="660" type="line"/>
      <point x="20" y="611" type="line"/>
    </contour>
  </outline>
</glyph>
<glyph name="one-ar" format="2">
  <advance width="275"/>
  <unicode hex="0661"/>
  <outline>
    <contour>
      <point x="120" y="0" type="line"/>
      <point x="155" y="0" type="line"/>
      <point x="155" y="660" type="line"/>
      <point x="120" y="660" type="line"/>
    </contour>
  </outline>
</glyph>
<glyph name="two-ar" format="2">
  <advance width="501"/>
  <unicode hex="0662"/>
  <outline>
    <contour>
      <point x="120" y="0" type="line"/>
      <point x="155" y="0" type="line"/>
      <point x="155" y="660" type="line"/>
      <point x="120" y="626" type="line"/>
      <point x="461" y="626" type="line"/>
      <point x="461" y="660" type="line"/>
      <point x="120" y="660" type="line"/>
    </contour>
  </outline>
</glyph>
<glyph name="five-ar" format="2">
  <advance width="666"/>
  <unicode hex="0665"/>
  <outline>
    <contour>
      <point x="333" y="-4" type="curve" smooth="yes"/>
      <point x="465" y="-4"/>
      <point x="591" y="91"/>
      <point x="591" y="272" type="curve" smooth="yes"/>
      <point x="591" y="417"/>
      <point x="510" y="665"/>
      <point x="333" y="664" type="curve" smooth="yes"/>
      <point x="156" y="663"/>
      <point x="75" y="417"/>
      <point x="75" y="272" type="curve" smooth="yes"/>
      <point x="75" y="91"/>
      <point x="201" y="-4"/>
    </contour>
    <contour>
      <point x="333" y="30" type="curve" smooth="yes"/>
      <point x="202" y="30"/>
      <point x="110" y="122"/>
      <point x="110" y="283" type="curve" smooth="yes"/>
      <point x="110" y="455"/>
      <point x="214" y="630"/>
      <point x="333" y="630" type="curve" smooth="yes"/>
      <point x="452" y="630"/>
      <point x="556" y="455"/>
      <point x="556" y="283" type="curve" smooth="yes"/>
      <point x="556" y="122"/>
      <point x="464" y="30"/>
    </contour>
  </outline>
</glyph>
<glyph name="seven-ar" format="2">
  <advance width="581"/>
  <unicode hex="0667"/>
  <outline>
    <contour>
      <point x="256" y="0" type="line"/>
      <point x="318" y="0" type="line"/>
      <point x="541" y="660" type="line"/>
      <point x="493" y="660" type="line"/>
      <point x="513" y="686" type="line"/>
      <point x="285" y="11" type="line"/>
      <point x="318" y="34" type="line"/>
      <point x="256" y="34" type="line"/>
      <point x="289" y="11" type="line"/>
      <point x="68" y="686" type="line"/>
      <point x="86" y="660" type="line"/>
      <point x="40" y="660" type="line"/>
    </contour>
  </outline>
</glyph>
<glyph name="percent-ar" format="2">
  <advance width="560"/>
  <unicode hex="066A"/>
  <outline>
    <contour>
      <point x="206" y="-9" type="line"/>
      <point x="392" y="660" type="line"/>
      <point x="360" y="669" type="line"/>
      <point x="175" y="-1" type="line"/>
    </contour>
    <contour>
      <point x="382" y="110" type="line"/>
      <point x="438" y="110" type="line"/>
      <point x="438" y="184" type="line"/>
      <point x="382" y="184" type="line"/>
    </contour>
    <contour>
      <point x="113" y="516" type="line"/>
      <point x="169" y="516" type="line"/>
      <point x="169" y="590" type="line"/>
      <point x="113" y="590" type="line"/>
    </contour>
  </outline>
</glyph>
<glyph name="thousandseparator-ar" format="2">
  <advance width="177"/>
  <unicode hex="066C"/>
  <outline>
    <contour>
      <point x="44" y="-122" type="line"/>
      <point x="67" y="-122" type="line"/>
      <point x="106" y="35" type="line"/>
      <point x="76" y="35" type="line"/>
    </contour>
  </outline>
</glyph>
<glyph name="alefabove-ar" format="2">
  <unicode hex="0670"/>
  <anchor x="37" y="488" name="_top"/>
  <anchor x="37" y="688" name="top"/>
  <outline>
    <contour>
      <point x="20" y="488" type="line"/>
      <point x="54" y="488" type="line"/>
      <point x="54" y="588" type="line"/>
      <point x="20" y="588" type="line"/>
    </contour>
  </outline>
</glyph>
<glyph name="fehDotless-ar" format="2">
  <advance width="1019"/>
  <unicode hex="06A1"/>
  <anchor x="370" y="-100" name="bottom"/>
  <anchor x="749" y="573" name="top"/>
  <outline>
    <contour>
      <point x="351" y="0" type="curve" smooth="yes"/>
      <point x="929" y="0" type="line"/>
      <point x="929" y="500" type="line"/>
      <point x="749" y="500" type="line" smooth="yes"/>
      <point x="574" y="500"/>
      <point x="526" y="422"/>
      <point x="526" y="250" type="curve" smooth="yes"/>
      <point x="526" y="78"/>
      <point x="574" y="0"/>
      <point x="749" y="0" type="curve"/>
      <point x="749" y="34" type="line"/>
      <point x="605" y="34"/>
      <point x="561" y="84"/>
      <point x="561" y="250" type="curve" smooth="yes"/>
      <point x="561" y="416"/>
      <point x="605" y="466"/>
      <point x="749" y="466" type="curve" smooth="yes"/>
      <point x="909" y="466" type="line"/>
      <point x="894" y="480" type="line"/>
      <point x="894" y="0" type="line"/>
      <point x="929" y="34" type="line"/>
      <point x="351" y="34" type="line" smooth="yes"/>
      <point x="168" y="34"/>
      <point x="89" y="90"/>
      <point x="89" y="213" type="curve" smooth="yes"/>
      <point x="89" y="271"/>
      <point x="106" y="345"/>
      <point x="114" y="386" type="curve"/>
      <point x="80" y="392" type="line"/>
      <point x="78" y="379"/>
      <point x="54" y="275"/>
      <point x="54" y="213" type="curve" smooth="yes"/>
      <point x="54" y="67"/>
      <point x="152" y="0"/>
    </contour>
  </outline>
</glyph>
<glyph name="hehDoachashmee-ar" format="2">
  <advance width="760"/>
  <unicode hex="06BE"/>
  <anchor x="354" y="-100" name="bottom"/>
  <anchor x="354" y="630" name="top"/>
  <outline>
    <contour>
      <point x="40" y="0" type="line"/>
      <point x="680" y="0" type="line"/>
      <point x="680" y="189" type="line" smooth="yes"/>
      <point x="680" y="445"/>
      <point x="520" y="523"/>
      <point x="354" y="523" type="curve" smooth="yes"/>
      <point x="255" y="523"/>
      <point x="149" y="495"/>
      <point x="123" y="488" type="curve"/>
      <point x="129" y="458" type="line"/>
      <point x="127" y="462" type="line"/>
      <point x="194" y="474"/>
      <point x="282" y="489"/>
      <point x="354" y="489" type="curve" smooth="yes"/>
      <point x="544" y="489"/>
      <point x="645" y="386"/>
      <point x="645" y="189" type="curve" smooth="yes"/>
      <point x="645" y="20" type="line"/>
      <point x="660" y="34" type="line"/>
      <point x="40" y="34" type="line"/>
    </contour>
    <contour>
      <point x="110" y="34" type="line"/>
      <point x="145" y="34" type="line"/>
      <point x="145" y="158" type="line" smooth="yes"/>
      <point x="145" y="228"/>
      <point x="203" y="283"/>
      <point x="276" y="283" type="curve" smooth="yes"/>
      <point x="349" y="283"/>
      <point x="406" y="228"/>
      <point x="406" y="158" type="curve" smooth="yes"/>
      <point x="406" y="34" type="line"/>
      <point x="441" y="34" type="line"/>
      <point x="441" y="158" type="line" smooth="yes"/>
      <point x="441" y="247"/>
      <point x="368" y="317"/>
      <point x="276" y="317" type="curve" smooth="yes"/>
      <point x="184" y="317"/>
      <point x="110" y="247"/>
      <point x="110" y="158" type="curve" smooth="yes"/>
    </contour>
  </outline>
</glyph>
<glyph name="yehbarree-ar" format="2">
  <advance width="707"/>
  <unicode hex="06D2"/>
  <anchor x="377" y="-310" name="bottom"/>
  <anchor x="109" y="160" name="top"/>
  <outline>
    <contour>
      <point x="270" y="-210" type="curve" smooth="yes"/>
      <point x="580" y="-210" type="line"/>
      <point x="580" y="-176" type="line"/>
      <point x="270" y="-176" type="line" smooth="yes"/>
      <point x="134" y="-176"/>
      <point x="75" y="-138"/>
      <point x="75" y="-49" type="curve" smooth="yes"/>
      <point x="75" y="6" type="line"/>
      <point x="65" y="0" type="line"/>
      <point x="414" y="0" type="line" smooth="yes"/>
      <point x="574" y="0"/>
      <point x="657" y="66"/>
      <point x="657" y="220" type="curve" smooth="yes"/>
      <point x="657" y="328" type="line"/>
      <point x="622" y="328" type="line"/>
      <point x="622" y="220" type="line" smooth="yes"/>
      <point x="622" y="90"/>
      <point x="560" y="34"/>
      <point x="414" y="34" type="curve" smooth="yes"/>
      <point x="81" y="34" type="line"/>
      <point x="40" y="4" type="line"/>
      <point x="40" y="-49" type="line" smooth="yes"/>
      <point x="40" y="-159"/>
      <point x="116" y="-210"/>
    </contour>
  </outline>
</glyph>
<glyph name="four-persian" format="2">
  <advance width="618"/>
  <unicode hex="06F4"/>
  <outline>
    <contour>
      <point x="351" y="330" type="curve" smooth="yes"/>
      <point x="496" y="330"/>
      <point x="578" y="391"/>
      <point x="578" y="500" type="curve" smooth="yes"/>
      <point x="578" y="601" type="line"/>
      <point x="543" y="601" type="line"/>
      <point x="543" y="500" type="line" smooth="yes"/>
      <point x="543" y="412"/>
      <point x="478" y="364"/>
      <point x="351" y="364" type="curve" smooth="yes"/>
      <point x="223" y="364"/>
      <point x="155" y="413"/>
      <point x="155" y="500" type="curve" smooth="yes"/>
      <point x="155" y="660" type="line"/>
      <point x="120" y="660" type="line"/>
      <point x="120" y="500" type="line" smooth="yes"/>
      <point x="120" y="392"/>
      <point x="205" y="330"/>
    </contour>
    <contour>
      <point x="120" y="0" type="line"/>
      <point x="155" y="0" type="line"/>
      <point x="155" y="660" type="line"/>
      <point x="120" y="660" type="line"/>
    </contour>
    <contour>
      <point x="347" y="335" type="curve"/>
      <point x="395" y="364" type="line"/>
      <point x="318" y="364"/>
      <point x="273" y="402"/>
      <point x="273" y="464" type="curve" smooth="yes"/>
      <point x="273" y="527"/>
      <point x="319" y="567"/>
      <point x="394" y="567" type="curve" smooth="yes"/>
      <point x="420" y="567"/>
      <point x="446" y="562"/>
      <point x="475" y="556" type="curve"/>
      <point x="482" y="589" type="line"/>
      <point x="453" y="595"/>
      <point x="424" y="601"/>
      <point x="394" y="601" type="curve" smooth="yes"/>
      <point x="303" y="601"/>
      <point x="238" y="549"/>
      <point x="238" y="464" type="curve" smooth="yes"/>
      <point x="238" y="396"/>
      <point x="281" y="350"/>
    </contour>
  </outline>
</glyph>
<glyph name="five-persian" format="2">
  <advance width="540"/>
  <unicode hex="06F5"/>
  <outline>
    <contour>
      <point x="178" y="0" type="curve" smooth="yes"/>
      <point x="253" y="0"/>
      <point x="268" y="94"/>
      <point x="270" y="94" type="curve" smooth="yes"/>
      <point x="272" y="94"/>
      <point x="293" y="0"/>
      <point x="362" y="0" type="curve" smooth="yes"/>
      <point x="420" y="0"/>
      <point x="470" y="61"/>
      <point x="470" y="177" type="curve" smooth="yes"/>
      <point x="470" y="407"/>
      <point x="273" y="541"/>
      <point x="159" y="632" type="curve"/>
      <point x="137" y="605" type="line"/>
      <point x="257" y="510"/>
      <point x="435" y="388"/>
      <point x="435" y="176" type="curve" smooth="yes"/>
      <point x="435" y="75"/>
      <point x="395" y="34"/>
      <point x="361" y="34" type="curve" smooth="yes"/>
      <point x="334" y="34"/>
      <point x="323" y="60"/>
      <point x="311" y="84" type="curve"/>
      <point x="301" y="106"/>
      <point x="291" y="128"/>
      <point x="270" y="128" type="curve" smooth="yes"/>
      <point x="249" y="128"/>
      <point x="240" y="107"/>
      <point x="230" y="85" type="curve"/>
      <point x="220" y="60"/>
      <point x="208" y="34"/>
      <point x="180" y="34" type="curve" smooth="yes"/>
      <point x="142" y="34"/>
      <point x="105" y="79"/>
      <point x="105" y="169" type="curve" smooth="yes"/>
      <point x="105" y="299"/>
      <point x="182" y="443"/>
      <point x="316" y="497" type="curve"/>
      <point x="280" y="519" type="line"/>
      <point x="156" y="457"/>
      <point x="70" y="315"/>
      <point x="70" y="172" type="curve" smooth="yes"/>
      <point x="70" y="70"/>
      <point x="114" y="0"/>
    </contour>
  </outline>
</glyph>
<glyph name="emdash" format="2">
  <advance width="1143"/>
  <unicode hex="2014"/>
  <outline>
    <contour>
      <point x="72" y="252" type="line"/>
      <point x="1072" y="252" type="line"/>
      <point x="1072" y="286" type="line"/>
      <point x="72" y="286" type="line"/>
    </contour>
  </outline>
</glyph>
<glyph name="quoteleft" format="2">
  <advance width="193"/>
  <unicode hex="2018"/>
  <outline>
    <contour>
      <point x="140" y="727" type="line"/>
      <point x="111" y="727" type="line"/>
      <point x="62" y="527" type="line"/>
      <point x="100" y="527" type="line"/>
    </contour>
  </outline>
</glyph>
<glyph name="quoteright" format="2">
  <advance width="191"/>
  <unicode hex="2019"/>
  <outline>
    <contour>
      <point x="63" y="527" type="line"/>
      <point x="92" y="527" type="line"/>
      <point x="141" y="727" type="line"/>
      <point x="103" y="727" type="line"/>
    </contour>
  </outline>
</glyph>
<glyph name="quotesinglbase" format="2">
  <advance width="192"/>
  <unicode hex="201A"/>
  <outline>
    <contour>
      <point x="121" y="115" type="line"/>
      <point x="92" y="115" type="line"/>
      <point x="43" y="-85" type="line"/>
      <point x="81" y="-85" type="line"/>
    </contour>
  </outline>
</glyph>
<glyph name="quotedblleft" format="2">
  <advance width="326"/>
  <unicode hex="201C"/>
  <outline>
    <contour>
      <point x="273" y="727" type="line"/>
      <point x="244" y="727" type="line"/>
      <point x="195" y="527" type="line"/>
      <point x="233" y="527" type="line"/>
    </contour>
    <contour>
      <point x="140" y="727" type="line"/>
      <point x="111" y="727" type="line"/>
      <point x="62" y="527" type="line"/>
      <point x="100" y="527" type="line"/>
    </contour>
  </outline>
</glyph>
<glyph name="quotedblright" format="2">
  <advance width="335"/>
  <unicode hex="201D"/>
  <outline>
    <contour>
      <point x="63" y="527" type="line"/>
      <point x="92" y="527" type="line"/>
      <point x="141" y="727" type="line"/>
      <point x="103" y="727" type="line"/>
    </contour>
    <contour>
      <point x="207" y="527" type="line"/>
      <point x="236" y="527" type="line"/>
      <point x="285" y="727" type="line"/>
      <point x="247" y="727" type="line"/>
    </contour>
  </outline>
</glyph>
<glyph name="quotedblbase" format="2">
  <advance width="317"/>
  <unicode hex="201E"/>
  <outline>
    <contour>
      <point x="63" y="-91" type="line"/>
      <point x="92" y="-91" type="line"/>
      <point x="141" y="109" type="line"/>
      <point x="103" y="109" type="line"/>
    </contour>
    <contour>
      <point x="207" y="-91" type="line"/>
      <point x="236" y="-91" type="line"/>
      <point x="285" y="109" type="line"/>
      <point x="247" y="109" type="line"/>
    </contour>
  </outline>
</glyph>
<glyph name="daggerdbl" format="2">
  <advance width="527"/>
  <unicode hex="2021"/>
  <outline>
    <contour>
      <point x="246" y="-79" type="line"/>
      <point x="281" y="-79" type="line"/>
      <point x="281" y="121" type="line"/>
      <point x="464" y="121" type="line"/>
      <point x="464" y="153" type="line"/>
      <point x="281" y="153" type="line"/>
      <point x="281" y="466" type="line"/>
      <point x="464" y="466" type="line"/>
      <point x="464" y="500" type="line"/>
      <point x="281" y="500" type="line"/>
      <point x="281" y="700" type="line"/>
      <point x="246" y="700" type="line"/>
      <point x="246" y="500" type="line"/>
      <point x="63" y="500" type="line"/>
      <point x="63" y="466" type="line"/>
      <point x="246" y="466" type="line"/>
      <point x="246" y="153" type="line"/>
      <point x="63" y="153" type="line"/>
      <point x="63" y="121" type="line"/>
      <point x="246" y="121" type="line"/>
    </contour>
  </outline>
</glyph>
<glyph name="perthousand" format="2">
  <advance width="828"/>
  <unicode hex="2030"/>
  <outline>
    <contour>
      <point x="147" y="397" type="curve" smooth="yes"/>
      <point x="207" y="397"/>
      <point x="250" y="439"/>
      <point x="250" y="535" type="curve" smooth="yes"/>
      <point x="250" y="631"/>
      <point x="208" y="669"/>
      <point x="147" y="669" type="curve" smooth="yes"/>
      <point x="85" y="669"/>
      <point x="44" y="631"/>
      <point x="44" y="536" type="curve" smooth="yes"/>
      <point x="44" y="439"/>
      <point x="86" y="397"/>
    </contour>
    <contour>
      <point x="147" y="429" type="curve" smooth="yes"/>
      <point x="98" y="429"/>
      <point x="79" y="468"/>
      <point x="79" y="536" type="curve" smooth="yes"/>
      <point x="79" y="603"/>
      <point x="98" y="637"/>
      <point x="147" y="637" type="curve" smooth="yes"/>
      <point x="197" y="637"/>
      <point x="215" y="603"/>
      <point x="215" y="535" type="curve" smooth="yes"/>
      <point x="215" y="467"/>
      <point x="197" y="429"/>
    </contour>
    <contour>
      <point x="212" y="-9" type="line"/>
      <point x="398" y="660" type="line"/>
      <point x="366" y="669" type="line"/>
      <point x="181" y="-1" type="line"/>
    </contour>
    <contour>
      <point x="426" y="-9" type="curve" smooth="yes"/>
      <point x="486" y="-9"/>
      <point x="529" y="33"/>
      <point x="529" y="129" type="curve" smooth="yes"/>
      <point x="529" y="225"/>
      <point x="487" y="263"/>
      <point x="426" y="263" type="curve" smooth="yes"/>
      <point x="364" y="263"/>
      <point x="323" y="225"/>
      <point x="323" y="130" type="curve" smooth="yes"/>
      <point x="323" y="33"/>
      <point x="365" y="-9"/>
    </contour>
    <contour>
      <point x="426" y="23" type="curve" smooth="yes"/>
      <point x="377" y="23"/>
      <point x="358" y="61"/>
      <point x="358" y="130" type="curve" smooth="yes"/>
      <point x="358" y="197"/>
      <point x="377" y="231"/>
      <point x="426" y="231" type="curve" smooth="yes"/>
      <point x="476" y="231"/>
      <point x="494" y="197"/>
      <point x="494" y="129" type="curve" smooth="yes"/>
      <point x="494" y="61"/>
      <point x="476" y="23"/>
    </contour>
    <contour>
      <point x="684" y="-9" type="curve" smooth="yes"/>
      <point x="744" y="-9"/>
      <point x="787" y="33"/>
      <point x="787" y="129" type="curve" smooth="yes"/>
      <point x="787" y="225"/>
      <point x="745" y="263"/>
      <point x="684" y="263" type="curve" smooth="yes"/>
      <point x="622" y="263"/>
      <point x="581" y="225"/>
      <point x="581" y="130" type="curve" smooth="yes"/>
      <point x="581" y="33"/>
      <point x="623" y="-9"/>
    </contour>
    <contour>
      <point x="684" y="23" type="curve" smooth="yes"/>
      <point x="635" y="23"/>
      <point x="616" y="61"/>
      <point x="616" y="130" type="curve" smooth="yes"/>
      <point x="616" y="197"/>
      <point x="635" y="231"/>
      <point x="684" y="231" type="curve" smooth="yes"/>
      <point x="734" y="231"/>
      <point x="752" y="197"/>
      <point x="752" y="129" type="curve" smooth="yes"/>
      <point x="752" y="61"/>
      <point x="734" y="23"/>
    </contour>
  </outline>
</glyph>
<glyph name="fivesuperior" format="2">
  <advance width="280"/>
  <unicode hex="2075"/>
  <outline>
    <contour>
      <point x="147" y="469" type="curve" smooth="yes"/>
      <point x="211" y="469"/>
      <point x="244" y="504"/>
      <point x="244" y="576" type="curve" smooth="yes"/>
      <point x="244" y="651"/>
      <point x="203" y="673"/>
      <point x="152" y="673" type="curve" smooth="yes"/>
      <point x="125" y="673"/>
      <point x="97" y="661"/>
      <point x="84" y="652" type="curve"/>
      <point x="91" y="757" type="line"/>
      <point x="234" y="757" type="line"/>
      <point x="234" y="790" type="line"/>
      <point x="60" y="790" type="line"/>
      <point x="51" y="620" type="line"/>
      <point x="82" y="618" type="line"/>
      <point x="95" y="627"/>
      <point x="123" y="640"/>
      <point x="152" y="640" type="curve" smooth="yes"/>
      <point x="182" y="640"/>
      <point x="209" y="626"/>
      <point x="209" y="576" type="curve" smooth="yes"/>
      <point x="209" y="528"/>
      <point x="189" y="502"/>
      <point x="147" y="502" type="curve" smooth="yes"/>
      <point x="116" y="502"/>
      <point x="73" y="507"/>
      <point x="50" y="511" type="curve"/>
      <point x="47" y="481" type="line"/>
      <point x="71" y="476"/>
      <point x="114" y="469"/>
    </contour>
  </outline>
</glyph>
<glyph name="sevensuperior" format="2">
  <advance width="280"/>
  <unicode hex="2077"/>
  <outline>
    <contour>
      <point x="113" y="470" type="line"/>
      <point x="224" y="729" type="line"/>
      <point x="224" y="790" type="line"/>
      <point x="32" y="790" type="line"/>
      <point x="32" y="756" type="line"/>
      <point x="188" y="756" type="line"/>
      <point x="188" y="731" type="line"/>
      <point x="79" y="479" type="line"/>
    </contour>
  </outline>
</glyph>
<glyph name="eightsuperior" format="2">
  <advance width="280"/>
  <unicode hex="2078"/>
  <outline>
    <contour>
      <point x="140" y="469" type="curve" smooth="yes"/>
      <point x="207" y="469"/>
      <point x="251" y="496"/>
      <point x="251" y="563" type="curve" smooth="yes"/>
      <point x="251" y="611"/>
      <point x="232" y="632"/>
      <point x="192" y="644" type="curve"/>
      <point x="235" y="657"/>
      <point x="246" y="674"/>
      <point x="246" y="717" type="curve" smooth="yes"/>
      <point x="246" y="775"/>
      <point x="209" y="799"/>
      <point x="140" y="799" type="curve" smooth="yes"/>
      <point x="70" y="799"/>
      <point x="34" y="774"/>
      <point x="34" y="717" type="curve" smooth="yes"/>
      <point x="34" y="674"/>
      <point x="50" y="658"/>
      <point x="88" y="644" type="curve"/>
      <point x="49" y="628"/>
      <point x="29" y="611"/>
      <point x="29" y="557" type="curve" smooth="yes"/>
      <point x="29" y="491"/>
      <point x="77" y="469"/>
    </contour>
    <contour>
      <point x="140" y="502" type="curve" smooth="yes"/>
      <point x="94" y="502"/>
      <point x="64" y="519"/>
      <point x="64" y="559" type="curve" smooth="yes"/>
      <point x="64" y="602"/>
      <point x="84" y="618"/>
      <point x="122" y="628" type="curve"/>
      <point x="158" y="628" type="line"/>
      <point x="198" y="618"/>
      <point x="216" y="601"/>
      <point x="216" y="562" type="curve" smooth="yes"/>
      <point x="216" y="519"/>
      <point x="189" y="502"/>
    </contour>
    <contour>
      <point x="122" y="660" type="line"/>
      <point x="84" y="672"/>
      <point x="69" y="683"/>
      <point x="69" y="717" type="curve" smooth="yes"/>
      <point x="69" y="749"/>
      <point x="89" y="766"/>
      <point x="140" y="766" type="curve" smooth="yes"/>
      <point x="191" y="766"/>
      <point x="211" y="749"/>
      <point x="211" y="716" type="curve" smooth="yes"/>
      <point x="211" y="683"/>
      <point x="198" y="671"/>
      <point x="158" y="660" type="curve"/>
    </contour>
  </outline>
</glyph>
<glyph name="ninesuperior" format="2">
  <advance width="280"/>
  <unicode hex="2079"/>
  <outline>
    <contour>
      <point x="128" y="469" type="curve" smooth="yes"/>
      <point x="207" y="469"/>
      <point x="247" y="517"/>
      <point x="247" y="631" type="curve" smooth="yes"/>
      <point x="247" y="746"/>
      <point x="210" y="799"/>
      <point x="137" y="799" type="curve" smooth="yes"/>
      <point x="77" y="799"/>
      <point x="33" y="762"/>
      <point x="33" y="694" type="curve" smooth="yes"/>
      <point x="33" y="630"/>
      <point x="71" y="590"/>
      <point x="133" y="590" type="curve" smooth="yes"/>
      <point x="159" y="590"/>
      <point x="194" y="600"/>
      <point x="212" y="607" type="curve"/>
      <point x="211" y="538"/>
      <point x="185" y="502"/>
      <point x="128" y="502" type="curve" smooth="yes"/>
      <point x="101" y="502"/>
      <point x="67" y="506"/>
      <point x="49" y="509" type="curve"/>
      <point x="46" y="479" type="line"/>
      <point x="65" y="475"/>
      <point x="101" y="469"/>
    </contour>
    <contour>
      <point x="134" y="622" type="curve" smooth="yes"/>
      <point x="92" y="622"/>
      <point x="68" y="654"/>
      <point x="68" y="695" type="curve" smooth="yes"/>
      <point x="68" y="742"/>
      <point x="95" y="766"/>
      <point x="138" y="766" type="curve" smooth="yes"/>
      <point x="191" y="766"/>
      <point x="210" y="724"/>
      <point x="212" y="640" type="curve"/>
      <point x="193" y="632"/>
      <point x="158" y="622"/>
    </contour>
  </outline>
</glyph>
<glyph name="Euro" format="2">
  <advance width="560"/>
  <unicode hex="20AC"/>
  <outline>
    <contour>
      <point x="32" y="393" type="line"/>
      <point x="454" y="393" type="line"/>
      <point x="454" y="427" type="line"/>
      <point x="32" y="427" type="line"/>
    </contour>
    <contour>
      <point x="32" y="245" type="line"/>
      <point x="454" y="245" type="line"/>
      <point x="454" y="279" type="line"/>
      <point x="32" y="279" type="line"/>
    </contour>
    <component base="C" xScale="0.944" yScale="0.944" xOffset="32"/>
  </outline>
</glyph>
<glyph name="trademark" format="2">
  <advance width="689"/>
  <unicode hex="2122"/>
  <outline>
    <contour>
      <point x="334" y="331" type="line"/>
      <point x="366" y="331" type="line"/>
      <point x="366" y="589" type="line"/>
      <point x="450" y="342" type="line"/>
      <point x="485" y="342" type="line"/>
      <point x="573" y="589" type="line"/>
      <point x="573" y="331" type="line"/>
      <point x="605" y="331" type="line"/>
      <point x="605" y="621" type="line"/>
      <point x="555" y="621" type="line"/>
      <point x="468" y="379" type="line"/>
      <point x="384" y="621" type="line"/>
      <point x="334" y="621" type="line"/>
    </contour>
    <contour>
      <point x="183" y="332" type="line"/>
      <point x="216" y="332" type="line"/>
      <point x="216" y="590" type="line"/>
      <point x="299" y="590" type="line"/>
      <point x="299" y="621" type="line"/>
      <point x="99" y="621" type="line"/>
      <point x="99" y="590" type="line"/>
      <point x="183" y="590" type="line"/>
    </contour>
  </outline>
</glyph>
<glyph name="partialdiff" format="2">
  <advance width="560"/>
  <unicode hex="2202"/>
  <outline>
    <contour>
      <point x="273" y="-9" type="curve" smooth="yes"/>
      <point x="425" y="-9"/>
      <point x="488" y="116"/>
      <point x="488" y="371" type="curve" smooth="yes"/>
      <point x="488" y="638"/>
      <point x="414" y="739"/>
      <point x="268" y="739" type="curve" smooth="yes"/>
      <point x="206" y="739"/>
      <point x="135" y="708"/>
      <point x="98" y="685" type="curve"/>
      <point x="102" y="653" type="line"/>
      <point x="140" y="675"/>
      <point x="209" y="705"/>
      <point x="262" y="705" type="curve" smooth="yes"/>
      <point x="395" y="705"/>
      <point x="448" y="608"/>
      <point x="451" y="391" type="curve"/>
      <point x="408" y="406"/>
      <point x="326" y="425"/>
      <point x="262" y="425" type="curve" smooth="yes"/>
      <point x="136" y="425"/>
      <point x="58" y="340"/>
      <point x="58" y="214" type="curve" smooth="yes"/>
      <point x="58" y="71"/>
      <point x="140" y="-9"/>
    </contour>
    <contour>
      <point x="273" y="25" type="curve" smooth="yes"/>
      <point x="158" y="25"/>
      <point x="94" y="92"/>
      <point x="94" y="214" type="curve" smooth="yes"/>
      <point x="94" y="318"/>
      <point x="157" y="391"/>
      <point x="264" y="391" type="curve" smooth="yes"/>
      <point x="323" y="391"/>
      <point x="406" y="371"/>
      <point x="452" y="356" type="curve"/>
      <point x="450" y="139"/>
      <point x="402" y="25"/>
    </contour>
  </outline>
</glyph>
<glyph name="Delta" format="2">
  <advance width="560"/>
  <unicode hex="2206"/>
  <outline>
    <contour>
      <point x="59" y="0" type="line"/>
      <point x="500" y="0" type="line"/>
      <point x="499" y="26" type="line"/>
      <point x="317" y="660" type="line"/>
      <point x="241" y="660" type="line"/>
      <point x="59" y="26" type="line"/>
    </contour>
    <contour>
      <point x="99" y="34" type="line"/>
      <point x="266" y="626" type="line"/>
      <point x="291" y="626" type="line"/>
      <point x="458" y="34" type="line"/>
    </contour>
  </outline>
</glyph>
<glyph name="summation" format="2">
  <advance width="560"/>
  <unicode hex="2211"/>
  <outline>
    <contour>
      <point x="53" y="-151" type="line"/>
      <point x="503" y="-151" type="line"/>
      <point x="503" y="-117" type="line"/>
      <point x="90" y="-117" type="line"/>
      <point x="90" y="-85" type="line"/>
      <point x="374" y="298" type="line"/>
      <point x="374" y="328" type="line"/>
      <point x="90" y="688" type="line"/>
      <point x="90" y="715" type="line"/>
      <point x="503" y="715" type="line"/>
      <point x="503" y="749" type="line"/>
      <point x="53" y="749" type="line"/>
      <point x="53" y="676" type="line"/>
      <point x="339" y="314" type="line"/>
      <point x="53" y="-76" type="line"/>
    </contour>
  </outline>
</glyph>
<glyph name="infinity" format="2">
  <advance width="560"/>
  <unicode hex="221E"/>
  <outline>
    <contour>
      <point x="412" y="121" type="curve" smooth="yes"/>
      <point x="492" y="121"/>
      <point x="528" y="187"/>
      <point x="528" y="292" type="curve" smooth="yes"/>
      <point x="528" y="397"/>
      <point x="492" y="463"/>
      <point x="414" y="463" type="curve" smooth="yes"/>
      <point x="326" y="463"/>
      <point x="298" y="390"/>
      <point x="265" y="292" type="curve"/>
      <point x="298" y="195"/>
      <point x="326" y="121"/>
    </contour>
    <contour>
      <point x="148" y="121" type="curve" smooth="yes"/>
      <point x="234" y="121"/>
      <point x="252" y="158"/>
      <point x="295" y="292" type="curve"/>
      <point x="262" y="390"/>
      <point x="234" y="463"/>
      <point x="146" y="463" type="curve" smooth="yes"/>
      <point x="68" y="463"/>
      <point x="32" y="397"/>
      <point x="32" y="292" type="curve" smooth="yes"/>
      <point x="32" y="187"/>
      <point x="68" y="121"/>
    </contour>
    <contour>
      <point x="147" y="156" type="curve" smooth="yes"/>
      <point x="92" y="156"/>
      <point x="70" y="214"/>
      <point x="70" y="292" type="curve" smooth="yes"/>
      <point x="70" y="380"/>
      <point x="91" y="428"/>
      <point x="147" y="428" type="curve" smooth="yes"/>
      <point x="221" y="428"/>
      <point x="238" y="355"/>
      <point x="265" y="292" type="curve"/>
      <point x="232" y="201"/>
      <point x="221" y="156"/>
    </contour>
    <contour>
      <point x="413" y="156" type="curve" smooth="yes"/>
      <point x="339" y="156"/>
      <point x="322" y="229"/>
      <point x="295" y="292" type="curve"/>
      <point x="322" y="355"/>
      <point x="339" y="428"/>
      <point x="413" y="428" type="curve" smooth="yes"/>
      <point x="469" y="428"/>
      <point x="490" y="380"/>
      <point x="490" y="292" type="curve" smooth="yes"/>
      <point x="490" y="204"/>
      <point x="468" y="156"/>
    </contour>
  </outline>
</glyph>
<glyph name="integral" format="2">
  <advance width="560"/>
  <unicode hex="222B"/>
  <outline>
    <contour>
      <point x="170" y="-179" type="curve" smooth="yes"/>
      <point x="261" y="-179"/>
      <point x="297" y="-134"/>
      <point x="297" y="0" type="curve" smooth="yes"/>
      <point x="297" y="564" type="line" smooth="yes"/>
      <point x="297" y="704"/>
      <point x="332" y="746"/>
      <point x="389" y="746" type="curve" smooth="yes"/>
      <point x="418" y="746"/>
      <point x="452" y="743"/>
      <point x="470" y="741" type="curve"/>
      <point x="472" y="773" type="line"/>
      <point x="456" y="776"/>
      <point x="422" y="779"/>
      <point x="389" y="779" type="curve" smooth="yes"/>
      <point x="309" y="779"/>
      <point x="262" y="727"/>
      <point x="262" y="564" type="curve" smooth="yes"/>
      <point x="262" y="0" type="line" smooth="yes"/>
      <point x="262" y="-110"/>
      <point x="237" y="-146"/>
      <point x="170" y="-146" type="curve" smooth="yes"/>
      <point x="147" y="-146"/>
      <point x="111" y="-143"/>
      <point x="90" y="-141" type="curve"/>
      <point x="88" y="-174" type="line"/>
      <point x="108" y="-176"/>
      <point x="144" y="-179"/>
    </contour>
  </outline>
</glyph>
<glyph name="lessequal" format="2">
  <advance width="560"/>
  <unicode hex="2264"/>
  <outline>
    <contour>
      <point x="489" y="122" type="line"/>
      <point x="489" y="161" type="line"/>
      <point x="111" y="309" type="line"/>
      <point x="489" y="446" type="line"/>
      <point x="489" y="485" type="line"/>
      <point x="65" y="326" type="line"/>
      <point x="65" y="290" type="line"/>
    </contour>
    <contour>
      <point x="65" y="24" type="line"/>
      <point x="489" y="24" type="line"/>
      <point x="489" y="58" type="line"/>
      <point x="65" y="58" type="line"/>
    </contour>
  </outline>
</glyph>
<glyph name="greaterequal" format="2">
  <advance width="560"/>
  <unicode hex="2265"/>
  <outline>
    <contour>
      <point x="70" y="122" type="line"/>
      <point x="494" y="290" type="line"/>
      <point x="494" y="326" type="line"/>
      <point x="70" y="485" type="line"/>
      <point x="70" y="446" type="line"/>
      <point x="448" y="309" type="line"/>
      <point x="70" y="161" type="line"/>
    </contour>
    <contour>
      <point x="494" y="24" type="line"/>
      <point x="494" y="58" type="line"/>
      <point x="70" y="58" type="line"/>
      <point x="70" y="24" type="line"/>
    </contour>
  </outline>
</glyph>
<glyph name="lozenge" format="2">
  <advance width="560"/>
  <unicode hex="25CA"/>
  <outline>
    <contour>
      <point x="242" y="0" type="line"/>
      <point x="318" y="0" type="line"/>
      <point x="500" y="332" type="line"/>
      <point x="318" y="660" type="line"/>
      <point x="242" y="660" type="line"/>
      <point x="60" y="332" type="line"/>
    </contour>
    <contour>
      <point x="266" y="34" type="line"/>
      <point x="102" y="332" type="line"/>
      <point x="266" y="626" type="line"/>
      <point x="293" y="626" type="line"/>
      <point x="457" y="332" type="line"/>
      <point x="293" y="34" type="line"/>
    </contour>
  </outline>
</glyph>
<glyph name="commaaccent" format="2">
  <unicode hex="F6C3"/>
  <outline>
    <contour>
      <point x="42" y="-267" type="line"/>
      <point x="70" y="-267" type="line"/>
      <point x="116" y="-78" type="line"/>
      <point x="79" y="-78" type="line"/>
    </contour>
  </outline>
</glyph>
<glyph name="gaf-ar.init" format="2">
  <advance width="606"/>
  <unicode hex="FB94"/>
  <anchor x="251" y="-100" name="bottom"/>
  <anchor x="177" y="804" name="top"/>
  <outline>
    <contour>
      <point x="50" y="476" type="line"/>
      <point x="106" y="587"/>
      <point x="125" y="616"/>
      <point x="194" y="724" type="curve"/>
      <point x="166" y="743" type="line"/>
      <point x="106" y="658"/>
      <point x="76" y="599"/>
      <point x="29" y="509" type="curve"/>
    </contour>
    <component base="keheh-ar.init"/>
  </outline>
</glyph>
<glyph name="noonghunna-ar.fina" format="2">
  <advance width="655"/>
  <unicode hex="FB9F"/>
  <outline>
    <contour>
      <point x="555" y="0" type="line"/>
      <point x="655" y="0" type="line"/>
      <point x="655" y="34" type="line"/>
      <point x="555" y="34" type="line"/>
    </contour>
    <component base="noonghunna-ar"/>
    <component base="connection_r" xOffset="605"/>
  </outline>
</glyph>
<glyph name="dotabove-ar" format="2">
  <advance width="75"/>
  <unicode hex="FBB2"/>
  <anchor x="38" y="645" name="_top"/>
  <anchor x="38" y="760" name="top"/>
  <outline>
    <contour>
      <point x="20" y="645" type="line"/>
      <point x="55" y="645" type="line"/>
      <point x="55" y="700" type="line"/>
      <point x="20" y="700" type="line"/>
    </contour>
  </outline>
</glyph>
<glyph name="twodotshorizontalabove-ar" format="2">
  <advance width="134"/>
  <unicode hex="FBB4"/>
  <outline>
    <contour>
      <point x="4" y="625" type="line"/>
      <point x="39" y="625" type="line"/>
      <point x="39" y="680" type="line"/>
      <point x="4" y="680" type="line"/>
    </contour>
    <contour>
      <point x="95" y="625" type="line"/>
      <point x="130" y="625" type="line"/>
      <point x="130" y="680" type="line"/>
      <point x="95" y="680" type="line"/>
    </contour>
  </outline>
</glyph>
<glyph name="threedotsupabove-ar" format="2">
  <advance width="166"/>
  <unicode hex="FBB6"/>
  <anchor x="83" y="625" name="_top"/>
  <anchor x="83" y="875" name="top"/>
  <outline>
    <contour>
      <point x="66" y="720" type="line"/>
      <point x="101" y="720" type="line"/>
      <point x="101" y="775" type="line"/>
      <point x="66" y="775" type="line"/>
    </contour>
    <component base="twodotshorizontalabove-ar" xOffset="16"/>
  </outline>
</glyph>
<glyph name="sad_alefMaksura-ar" format="2">
  <advance width="1532"/>
  <unicode hex="FD05"/>
  <anchor x="1173" y="-100" name="bottom_1"/>
  <anchor x="424" y="-300" name="bottom_2"/>
  <anchor x="766" y="0" name="caret_1"/>
  <anchor x="1173" y="573" name="top_1"/>
  <anchor x="96" y="266" name="top_2"/>
  <outline>
    <contour>
      <point x="303" y="-248" type="curve" smooth="yes"/>
      <point x="586" y="-248" type="line" smooth="yes"/>
      <point x="733" y="-248"/>
      <point x="807" y="-152"/>
      <point x="807" y="-11" type="curve" smooth="yes"/>
      <point x="807" y="129"/>
      <point x="735" y="155"/>
      <point x="614" y="190" type="curve" smooth="yes"/>
      <point x="497" y="223"/>
      <point x="439" y="236"/>
      <point x="439" y="336" type="curve" smooth="yes"/>
      <point x="439" y="427"/>
      <point x="488" y="466"/>
      <point x="587" y="466" type="curve"/>
      <point x="590" y="500" type="line"/>
      <point x="468" y="500"/>
      <point x="404" y="446"/>
      <point x="404" y="336" type="curve" smooth="yes"/>
      <point x="404" y="204"/>
      <point x="497" y="188"/>
      <point x="605" y="157" type="curve" smooth="yes"/>
      <point x="739" y="118"/>
      <point x="772" y="92"/>
      <point x="772" y="-6" type="curve" smooth="yes"/>
      <point x="772" y="-146"/>
      <point x="705" y="-214"/>
      <point x="586" y="-214" type="curve" smooth="yes"/>
      <point x="303" y="-214" type="line" smooth="yes"/>
      <point x="170" y="-214"/>
      <point x="75" y="-139"/>
      <point x="75" y="-35" type="curve" smooth="yes"/>
      <point x="75" y="0"/>
      <point x="85" y="86"/>
      <point x="101" y="181" type="curve"/>
      <point x="66" y="186" type="line"/>
      <point x="52" y="100"/>
      <point x="40" y="6"/>
      <point x="40" y="-35" type="curve" smooth="yes"/>
      <point x="40" y="-162"/>
      <point x="156" y="-248"/>
    </contour>
    <contour>
      <point x="587" y="466" type="line"/>
      <point x="882" y="466" type="line"/>
      <point x="882" y="500" type="line"/>
      <point x="590" y="500" type="line"/>
    </contour>
    <contour>
      <point x="882" y="0" type="line"/>
      <point x="917" y="0" type="line"/>
      <point x="917" y="500" type="line"/>
      <point x="882" y="500" type="line"/>
    </contour>
    <contour>
      <point x="917" y="0" type="line"/>
      <point x="1452" y="0" type="line"/>
      <point x="1452" y="241" type="line" smooth="yes"/>
      <point x="1452" y="353"/>
      <point x="1409" y="500"/>
      <point x="1219" y="500" type="curve" smooth="yes"/>
      <point x="1053" y="500"/>
      <point x="973" y="388"/>
      <point x="890" y="285" type="curve"/>
      <point x="917" y="264" type="line"/>
      <point x="1003" y="371"/>
      <point x="1075" y="466"/>
      <point x="1218" y="466" type="curve" smooth="yes"/>
      <point x="1350" y="466"/>
      <point x="1417" y="385"/>
      <point x="1417" y="241" type="curve" smooth="yes"/>
      <point x="1417" y="10" type="line"/>
      <point x="1442" y="34" type="line"/>
      <point x="917" y="34" type="line"/>
    </contour>
  </outline>
</glyph>
<glyph name="seen_alefMaksura-ar.fina" format="2">
  <advance width="1543"/>
  <unicode hex="FD17"/>
  <outline>
    <contour>
      <point x="1443" y="0" type="line"/>
      <point x="1543" y="0" type="line"/>
      <point x="1543" y="34" type="line"/>
      <point x="1443" y="34" type="line"/>
    </contour>
    <component base="seen_alefMaksura-ar"/>
    <component base="connection_r" xOffset="1493"/>
  </outline>
</glyph>
<glyph name="sad-ar.medi" format="2">
  <advance width="820"/>
  <unicode hex="FEBC"/>
  <outline>
    <contour>
      <point x="720" y="0" type="line"/>
      <point x="820" y="0" type="line"/>
      <point x="820" y="34" type="line"/>
      <point x="720" y="34" type="line"/>
    </contour>
    <component base="sad-ar.init"/>
    <component base="connection_r" xOffset="770"/>
  </outline>
</glyph>
<glyph name="tah-ar.init" format="2">
  <advance width="750"/>
  <unicode hex="FEC3"/>
  <anchor x="391" y="-100" name="bottom"/>
  <anchor x="391" y="573" name="top"/>
  <outline>
    <contour>
      <point x="0" y="0" type="line"/>
      <point x="670" y="0" type="line"/>
      <point x="670" y="241" type="line" smooth="yes"/>
      <point x="670" y="353"/>
      <point x="627" y="500"/>
      <point x="437" y="500" type="curve" smooth="yes"/>
      <point x="271" y="500"/>
      <point x="191" y="388"/>
      <point x="108" y="285" type="curve"/>
      <point x="135" y="264" type="line"/>
      <point x="221" y="371"/>
      <point x="293" y="466"/>
      <point x="436" y="466" type="curve" smooth="yes"/>
      <point x="568" y="466"/>
      <point x="635" y="385"/>
      <point x="635" y="241" type="curve" smooth="yes"/>
      <point x="635" y="10" type="line"/>
      <point x="660" y="34" type="line"/>
      <point x="0" y="34" type="line"/>
    </contour>
    <contour>
      <point x="100" y="34" type="line"/>
      <point x="135" y="34" type="line"/>
      <point x="135" y="730" type="line"/>
      <point x="100" y="730" type="line"/>
    </contour>
    <component base="connection_l"/>
  </outline>
</glyph>
<glyph name="meem-ar.medi" format="2">
  <advance width="636"/>
  <unicode hex="FEE4"/>
  <outline>
    <contour>
      <point x="536" y="0" type="line"/>
      <point x="636" y="0" type="line"/>
      <point x="636" y="34" type="line"/>
      <point x="536" y="34" type="line"/>
    </contour>
    <component base="meem-ar.init"/>
    <component base="connection_r" xOffset="586"/>
  </outline>
</glyph>
<glyph name="heh-ar.medi" format="2">
  <advance width="613"/>
  <unicode hex="FEEC"/>
  <anchor x="274" y="-350" name="bottom"/>
  <anchor x="274" y="573" name="top"/>
  <outline>
    <contour>
      <point x="0" y="0" type="line"/>
      <point x="513" y="0" type="line"/>
      <point x="513" y="245" type="line" smooth="yes"/>
      <point x="513" y="432"/>
      <point x="433" y="500"/>
      <point x="275" y="500" type="curve" smooth="yes"/>
      <point x="201" y="500"/>
      <point x="136" y="485"/>
      <point x="109" y="473" type="curve"/>
      <point x="98" y="426"/>
      <point x="82" y="328"/>
      <point x="82" y="226" type="curve" smooth="yes"/>
      <point x="82" y="118"/>
      <point x="100" y="21"/>
      <point x="107" y="0" type="curve"/>
      <point x="140" y="11" type="line"/>
      <point x="134" y="29"/>
      <point x="117" y="121"/>
      <point x="117" y="226" type="curve" smooth="yes"/>
      <point x="117" y="325"/>
      <point x="132" y="420"/>
      <point x="143" y="465" type="curve"/>
      <point x="123" y="442" type="line"/>
      <point x="154" y="456"/>
      <point x="218" y="466"/>
      <point x="276" y="466" type="curve" smooth="yes"/>
      <point x="421" y="466"/>
      <point x="478" y="403"/>
      <point x="478" y="245" type="curve" smooth="yes"/>
      <point x="478" y="0" type="line"/>
      <point x="513" y="34" type="line"/>
      <point x="0" y="34" type="line"/>
    </contour>
    <contour>
      <point x="274" y="-247" type="curve" smooth="yes"/>
      <point x="433" y="-247"/>
      <point x="513" y="-209"/>
      <point x="513" y="-104" type="curve" smooth="yes"/>
      <point x="513" y="34" type="line"/>
      <point x="478" y="34" type="line"/>
      <point x="478" y="-104" type="line" smooth="yes"/>
      <point x="478" y="-181"/>
      <point x="424" y="-213"/>
      <point x="278" y="-213" type="curve" smooth="yes"/>
      <point x="215" y="-213"/>
      <point x="148" y="-207"/>
      <point x="118" y="-199" type="curve"/>
      <point x="141" y="-219" type="line"/>
      <point x="127" y="-186"/>
      <point x="117" y="-134"/>
      <point x="117" y="-96" type="curve" smooth="yes"/>
      <point x="117" y="-56"/>
      <point x="128" y="0"/>
      <point x="137" y="17" type="curve"/>
      <point x="107" y="34" type="line"/>
      <point x="100" y="22"/>
      <point x="82" y="-32"/>
      <point x="82" y="-93" type="curve" smooth="yes"/>
      <point x="82" y="-151"/>
      <point x="98" y="-206"/>
      <point x="109" y="-232" type="curve"/>
      <point x="136" y="-239"/>
      <point x="201" y="-247"/>
    </contour>
    <contour>
      <point x="513" y="0" type="line"/>
      <point x="613" y="0" type="line"/>
      <point x="613" y="34" type="line"/>
      <point x="513" y="34" type="line"/>
    </contour>
    <component base="connection_r" xOffset="563"/>
    <component base="connection_l"/>
  </outline>
</glyph>
<glyph name="waw-ar.fina" format="2">
  <advance width="543"/>
  <unicode hex="FEEE"/>
  <outline>
    <contour>
      <point x="443" y="0" type="line"/>
      <point x="543" y="0" type="line"/>
      <point x="543" y="34" type="line"/>
      <point x="443" y="34" type="line"/>
    </contour>
    <component base="waw-ar"/>
    <component base="connection_r" xOffset="493"/>
  </outline>
</glyph>
<glyph name="alefMaksura-ar.fina" format="2">
  <advance width="863"/>
  <unicode hex="FEF0"/>
  <anchor x="424" y="-300" name="bottom"/>
  <anchor x="96" y="266" name="top"/>
  <outline>
    <contour>
      <point x="303" y="-248" type="curve" smooth="yes"/>
      <point x="586" y="-248" type="line" smooth="yes"/>
      <point x="733" y="-248"/>
      <point x="807" y="-152"/>
      <point x="807" y="-11" type="curve" smooth="yes"/>
      <point x="807" y="18" type="line"/>
      <point x="772" y="18" type="line"/>
      <point x="772" y="-11" type="line" smooth="yes"/>
      <point x="772" y="-142"/>
      <point x="706" y="-214"/>
      <point x="586" y="-214" type="curve" smooth="yes"/>
      <point x="303" y="-214" type="line" smooth="yes"/>
      <point x="170" y="-214"/>
      <point x="75" y="-139"/>
      <point x="75" y="-35" type="curve" smooth="yes"/>
      <point x="75" y="0"/>
      <point x="85" y="86"/>
      <point x="101" y="181" type="curve"/>
      <point x="66" y="186" type="line"/>
      <point x="52" y="100"/>
      <point x="40" y="6"/>
      <point x="40" y="-35" type="curve" smooth="yes"/>
      <point x="40" y="-162"/>
      <point x="156" y="-248"/>
    </contour>
    <contour>
      <point x="685" y="0" type="curve" smooth="yes"/>
      <point x="863" y="0" type="line"/>
      <point x="863" y="34" type="line"/>
      <point x="685" y="34" type="line" smooth="yes"/>
      <point x="639" y="34"/>
      <point x="606" y="42"/>
      <point x="581" y="58" type="curve"/>
      <point x="562" y="29" type="line"/>
      <point x="601" y="4"/>
      <point x="649" y="0"/>
    </contour>
    <component base="connection_r" xOffset="813"/>
  </outline>
</glyph>
<glyph name="Oslash.rvrn" format="2">
  <advance width="666"/>
  <outline>
    <contour>
      <point x="111" y="-98" type="line"/>
      <point x="141" y="-109" type="line"/>
      <point x="208" y="27" type="line"/>
      <point x="179" y="41" type="line"/>
    </contour>
    <contour>
      <point x="558" y="780" type="line"/>
      <point x="528" y="792" type="line"/>
      <point x="467" y="665" type="line"/>
      <point x="497" y="648" type="line"/>
    </contour>
    <component base="O"/>
  </outline>
</glyph>
<glyph name="acute.cap" format="2">
  <advance width="215"/>
  <outline>
    <contour>
      <point x="212" y="922" type="line"/>
      <point x="20" y="826" type="line"/>
      <point x="35" y="799" type="line"/>
      <point x="228" y="891" type="line"/>
    </contour>
  </outline>
</glyph>
<glyph name="alefMaksura_alefMaksura-ar.fina.alt" format="2">
  <advance width="1017"/>
  <anchor x="900" y="-60" name="bottom_1"/>
  <anchor x="424" y="-300" name="bottom_2"/>
  <anchor x="438.5" y="0" name="caret_1"/>
  <anchor x="854" y="573" name="top_1"/>
  <anchor x="96" y="266" name="top_2"/>
  <outline>
    <contour>
      <point x="303" y="-248" type="curve" smooth="yes"/>
      <point x="586" y="-248" type="line" smooth="yes"/>
      <point x="733" y="-248"/>
      <point x="807" y="-152"/>
      <point x="807" y="-11" type="curve" smooth="yes"/>
      <point x="807" y="129"/>
      <point x="735" y="155"/>
      <point x="614" y="190" type="curve" smooth="yes"/>
      <point x="497" y="223"/>
      <point x="439" y="236"/>
      <point x="439" y="336" type="curve" smooth="yes"/>
      <point x="439" y="427"/>
      <point x="488" y="466"/>
      <point x="587" y="466" type="curve"/>
      <point x="590" y="500" type="line"/>
      <point x="468" y="500"/>
      <point x="404" y="446"/>
      <point x="404" y="336" type="curve" smooth="yes"/>
      <point x="404" y="204"/>
      <point x="497" y="188"/>
      <point x="605" y="157" type="curve" smooth="yes"/>
      <point x="739" y="118"/>
      <point x="772" y="92"/>
      <point x="772" y="-6" type="curve" smooth="yes"/>
      <point x="772" y="-146"/>
      <point x="705" y="-214"/>
      <point x="586" y="-214" type="curve" smooth="yes"/>
      <point x="303" y="-214" type="line" smooth="yes"/>
      <point x="170" y="-214"/>
      <point x="75" y="-139"/>
      <point x="75" y="-35" type="curve" smooth="yes"/>
      <point x="75" y="0"/>
      <point x="85" y="86"/>
      <point x="101" y="181" type="curve"/>
      <point x="66" y="186" type="line"/>
      <point x="52" y="100"/>
      <point x="40" y="6"/>
      <point x="40" y="-35" type="curve" smooth="yes"/>
      <point x="40" y="-162"/>
      <point x="156" y="-248"/>
    </contour>
    <contour>
      <point x="882" y="0" type="line"/>
      <point x="1017" y="0" type="line"/>
      <point x="1017" y="34" type="line"/>
      <point x="902" y="34" type="line"/>
      <point x="917" y="20" type="line"/>
      <point x="917" y="500" type="line"/>
      <point x="882" y="500" type="line"/>
    </contour>
    <contour>
      <point x="587" y="466" type="line"/>
      <point x="882" y="466" type="line"/>
      <point x="882" y="500" type="line"/>
      <point x="590" y="500" type="line"/>
    </contour>
    <component base="connection_r" xOffset="967"/>
  </outline>
</glyph>
<glyph name="alefMaksura_noon-ar.fina.alt" format="2">
  <advance width="890"/>
  <anchor x="773" y="-60" name="bottom_1"/>
  <anchor x="308" y="-330" name="bottom_2"/>
  <anchor x="317.5" y="0" name="caret_1"/>
  <anchor x="773" y="573" name="top_1"/>
  <anchor x="300" y="628" name="top_2"/>
  <outline>
    <contour>
      <point x="755" y="0" type="line"/>
      <point x="890" y="0" type="line"/>
      <point x="890" y="34" type="line"/>
      <point x="775" y="34" type="line"/>
      <point x="790" y="20" type="line"/>
      <point x="790" y="500" type="line"/>
      <point x="755" y="500" type="line"/>
    </contour>
    <contour>
      <point x="555" y="377" type="line"/>
      <point x="755" y="377" type="line"/>
      <point x="755" y="411" type="line"/>
      <point x="555" y="411" type="line"/>
    </contour>
    <component base="noon-ar"/>
    <component base="connection_r" xOffset="840"/>
  </outline>
</glyph>
<glyph name="behDotless-ar.fina" format="2">
  <advance width="771"/>
  <outline>
    <contour>
      <point x="671" y="0" type="line"/>
      <point x="771" y="0" type="line"/>
      <point x="771" y="34" type="line"/>
      <point x="671" y="34" type="line"/>
    </contour>
    <component base="behDotless-ar"/>
    <component base="connection_r" xOffset="721"/>
  </outline>
</glyph>
<glyph name="behDotless-ar.init" format="2">
  <advance width="225"/>
  <anchor x="118" y="-60" name="bottom"/>
  <anchor x="118" y="573" name="top"/>
  <outline>
    <contour>
      <point x="0" y="0" type="line"/>
      <point x="135" y="0" type="line"/>
      <point x="135" y="500" type="line"/>
      <point x="100" y="500" type="line"/>
      <point x="100" y="20" type="line"/>
      <point x="115" y="34" type="line"/>
      <point x="0" y="34" type="line"/>
    </contour>
    <component base="connection_l"/>
  </outline>
</glyph>
<glyph name="connection_l" format="2">
  <advance width="50"/>
  <outline>
    <contour>
      <point x="0" y="0" type="curve"/>
      <point x="0" y="34" type="line"/>
      <point x="-18" y="34"/>
      <point x="-20" y="26"/>
      <point x="-20" y="17" type="curve" smooth="yes"/>
      <point x="-20" y="7"/>
      <point x="-18" y="0"/>
    </contour>
  </outline>
</glyph>
<glyph name="dieresis.cap" format="2">
  <advance width="215"/>
  <outline>
    <contour>
      <point x="188" y="838" type="line"/>
      <point x="223" y="838" type="line"/>
      <point x="223" y="900" type="line"/>
      <point x="188" y="900" type="line"/>
    </contour>
    <contour>
      <point x="-8" y="838" type="line"/>
      <point x="27" y="838" type="line"/>
      <point x="27" y="900" type="line"/>
      <point x="-8" y="900" type="line"/>
    </contour>
  </outline>
</glyph>
<glyph name="exclamdown.cap" format="2">
  <advance width="225"/>
  <outline>
    <contour>
      <point x="130" y="485" type="line"/>
      <point x="95" y="485" type="line"/>
      <point x="95" y="-1" type="line"/>
      <point x="130" y="-1" type="line"/>
    </contour>
    <contour>
      <point x="132" y="699" type="line"/>
      <point x="92" y="699" type="line"/>
      <point x="92" y="619" type="line"/>
      <point x="132" y="619" type="line"/>
    </contour>
  </outline>
</glyph>
<glyph name="fehDotless-ar.fina" format="2">
  <advance width="1029"/>
  <outline>
    <contour>
      <point x="929" y="0" type="line"/>
      <point x="1029" y="0" type="line"/>
      <point x="1029" y="34" type="line"/>
      <point x="929" y="34" type="line"/>
    </contour>
    <component base="fehDotless-ar"/>
    <component base="connection_r" xOffset="979"/>
  </outline>
</glyph>
<glyph name="five.pnum" format="2">
  <advance width="480"/>
  <outline>
    <contour>
      <point x="254" y="-9" type="curve" smooth="yes"/>
      <point x="356" y="-9"/>
      <point x="425" y="47"/>
      <point x="425" y="164" type="curve" smooth="yes"/>
      <point x="425" y="273"/>
      <point x="356" y="313"/>
      <point x="256" y="313" type="curve" smooth="yes"/>
      <point x="203" y="313"/>
      <point x="136" y="290"/>
      <point x="100" y="273" type="curve"/>
      <point x="114" y="469" type="line"/>
      <point x="405" y="469" type="line"/>
      <point x="405" y="501" type="line"/>
      <point x="83" y="501" type="line"/>
      <point x="67" y="244" type="line"/>
      <point x="91" y="238" type="line"/>
      <point x="132" y="256"/>
      <point x="205" y="281"/>
      <point x="255" y="281" type="curve" smooth="yes"/>
      <point x="336" y="281"/>
      <point x="390" y="251"/>
      <point x="390" y="164" type="curve" smooth="yes"/>
      <point x="390" y="67"/>
      <point x="337" y="23"/>
      <point x="254" y="23" type="curve" smooth="yes"/>
      <point x="203" y="23"/>
      <point x="119" y="33"/>
      <point x="70" y="41" type="curve"/>
      <point x="66" y="9" type="line"/>
      <point x="114" y="1"/>
      <point x="199" y="-9"/>
    </contour>
  </outline>
</glyph>
<glyph name="four-persian.urdu" format="2">
  <advance width="523"/>
  <outline>
    <contour>
      <point x="100" y="0" type="line"/>
      <point x="135" y="0" type="line"/>
      <point x="135" y="491" type="line" smooth="yes"/>
      <point x="135" y="544"/>
      <point x="159" y="600"/>
      <point x="200" y="600" type="curve" smooth="yes"/>
      <point x="240" y="600"/>
      <point x="270" y="541"/>
      <point x="277" y="504" type="curve"/>
      <point x="273" y="507" type="line"/>
      <point x="289" y="553"/>
      <point x="358" y="620"/>
      <point x="473" y="620" type="curve"/>
      <point x="473" y="654" type="line"/>
      <point x="391" y="654"/>
      <point x="315" y="621"/>
      <point x="271" y="570" type="curve"/>
      <point x="291" y="568" type="line"/>
      <point x="269" y="608"/>
      <point x="236" y="634"/>
      <point x="200" y="634" type="curve" smooth="yes"/>
      <point x="142" y="634"/>
      <point x="100" y="571"/>
      <point x="100" y="491" type="curve" smooth="yes"/>
    </contour>
  </outline>
</glyph>
<glyph name="grave.cap" format="2">
  <advance width="215"/>
  <outline>
    <contour>
      <point x="10" y="891" type="line"/>
      <point x="203" y="799" type="line"/>
      <point x="218" y="826" type="line"/>
      <point x="26" y="922" type="line"/>
    </contour>
  </outline>
</glyph>
<glyph name="guillemotleft.BRACKET.139" format="2">
  <advance width="601"/>
  <outline>
    <contour>
      <point x="272" y="240" type="line"/>
      <point x="468" y="-4" type="line"/>
      <point x="557" y="65" type="line"/>
      <point x="413" y="244" type="line"/>
      <point x="557" y="423" type="line"/>
      <point x="468" y="492" type="line"/>
      <point x="272" y="248" type="line"/>
    </contour>
    <contour>
      <point x="6" y="240" type="line"/>
      <point x="202" y="-4" type="line"/>
      <point x="291" y="65" type="line"/>
      <point x="147" y="244" type="line"/>
      <point x="291" y="423" type="line"/>
      <point x="202" y="492" type="line"/>
      <point x="6" y="248" type="line"/>
    </contour>
  </outline>
</glyph>
<glyph name="guillemotright.BRACKET.139" format="2">
  <advance width="603"/>
  <outline>
    <contour>
      <point x="597" y="240" type="line"/>
      <point x="597" y="248" type="line"/>
      <point x="401" y="492" type="line"/>
      <point x="312" y="423" type="line"/>
      <point x="456" y="244" type="line"/>
      <point x="312" y="65" type="line"/>
      <point x="401" y="-4" type="line"/>
    </contour>
    <contour>
      <point x="331" y="240" type="line"/>
      <point x="331" y="248" type="line"/>
      <point x="135" y="492" type="line"/>
      <point x="46" y="423" type="line"/>
      <point x="190" y="244" type="line"/>
      <point x="46" y="65" type="line"/>
      <point x="135" y="-4" type="line"/>
    </contour>
  </outline>
</glyph>
<glyph name="guilsinglright.BRACKET.139" format="2">
  <advance width="318"/>
  <outline>
    <contour>
      <point x="116" y="-4" type="line"/>
      <point x="312" y="240" type="line"/>
      <point x="312" y="248" type="line"/>
      <point x="116" y="492" type="line"/>
      <point x="27" y="423" type="line"/>
      <point x="171" y="244" type="line"/>
      <point x="27" y="65" type="line"/>
    </contour>
  </outline>
</glyph>
<glyph name="hungarumlaut.cap" format="2">
  <advance width="215"/>
  <outline>
    <contour>
      <point x="-37" y="762" type="line"/>
      <point x="154" y="849" type="line"/>
      <point x="140" y="879" type="line"/>
      <point x="-52" y="791" type="line"/>
    </contour>
    <contour>
      <point x="153" y="761" type="line"/>
      <point x="345" y="849" type="line"/>
      <point x="330" y="878" type="line"/>
      <point x="139" y="791" type="line"/>
    </contour>
  </outline>
</glyph>
<glyph name="one.pnum" format="2">
  <advance width="326"/>
  <outline>
    <contour>
      <point x="208" y="0" type="line"/>
      <point x="243" y="0" type="line"/>
      <point x="243" y="500" type="line"/>
      <point x="208" y="500" type="line"/>
      <point x="35" y="391" type="line"/>
      <point x="52" y="363" type="line"/>
      <point x="208" y="462" type="line"/>
    </contour>
  </outline>
</glyph>
<glyph name="oslash.rvrn" format="2">
  <advance width="526"/>
  <outline>
    <contour>
      <point x="423" y="594" type="line"/>
      <point x="393" y="605" type="line"/>
      <point x="343" y="484" type="line"/>
      <point x="372" y="471" type="line"/>
    </contour>
    <contour>
      <point x="133" y="-114" type="line"/>
      <point x="184" y="10" type="line"/>
      <point x="154" y="22" type="line"/>
      <point x="103" y="-103" type="line"/>
    </contour>
    <component base="o"/>
  </outline>
</glyph>
<glyph name="tilde.cap" format="2">
  <advance width="215"/>
  <outline>
    <contour>
      <point x="214" y="833" type="curve" smooth="yes"/>
      <point x="237" y="833"/>
      <point x="267" y="863"/>
      <point x="284" y="885" type="curve"/>
      <point x="273" y="913" type="line"/>
      <point x="255" y="892"/>
      <point x="227" y="865"/>
      <point x="214" y="865" type="curve" smooth="yes"/>
      <point x="199" y="865"/>
      <point x="173" y="878"/>
      <point x="145" y="891" type="curve" smooth="yes"/>
      <point x="113" y="907"/>
      <point x="78" y="924"/>
      <point x="55" y="924" type="curve" smooth="yes"/>
      <point x="31" y="924"/>
      <point x="-3" y="893"/>
      <point x="-22" y="870" type="curve"/>
      <point x="-12" y="841" type="line"/>
      <point x="8" y="863"/>
      <point x="40" y="893"/>
      <point x="55" y="893" type="curve" smooth="yes"/>
      <point x="70" y="893"/>
      <point x="96" y="880"/>
      <point x="124" y="866" type="curve" smooth="yes"/>
      <point x="156" y="850"/>
      <point x="191" y="833"/>
    </contour>
  </outline>
</glyph>
<glyph name="two.pnum" format="2">
  <advance width="463"/>
  <outline>
    <contour>
      <point x="58" y="0" type="line"/>
      <point x="409" y="0" type="line"/>
      <point x="409" y="32" type="line"/>
      <point x="98" y="32" type="line"/>
      <point x="293" y="195" type="line" smooth="yes"/>
      <point x="351" y="244"/>
      <point x="393" y="289"/>
      <point x="393" y="370" type="curve" smooth="yes"/>
      <point x="393" y="465"/>
      <point x="337" y="509"/>
      <point x="227" y="509" type="curve" smooth="yes"/>
      <point x="175" y="509"/>
      <point x="100" y="497"/>
      <point x="58" y="488" type="curve"/>
      <point x="61" y="457" type="line"/>
      <point x="61" y="458"/>
      <point x="168" y="477"/>
      <point x="226" y="477" type="curve" smooth="yes"/>
      <point x="319" y="477"/>
      <point x="358" y="447"/>
      <point x="358" y="370" type="curve" smooth="yes"/>
      <point x="358" y="304"/>
      <point x="322" y="262"/>
      <point x="259" y="207" type="curve" smooth="yes"/>
      <point x="58" y="32" type="line"/>
    </contour>
  </outline>
</glyph>
<glyph name="zero.pnum" format="2">
  <advance width="529"/>
  <outline>
    <contour>
      <point x="264" y="-9" type="curve" smooth="yes"/>
      <point x="383" y="-9"/>
      <point x="467" y="47"/>
      <point x="467" y="241" type="curve" smooth="yes"/>
      <point x="467" y="456"/>
      <point x="393" y="509"/>
      <point x="263" y="509" type="curve" smooth="yes"/>
      <point x="143" y="509"/>
      <point x="61" y="447"/>
      <point x="61" y="243" type="curve" smooth="yes"/>
      <point x="61" y="47"/>
      <point x="152" y="-9"/>
    </contour>
    <contour>
      <point x="265" y="23" type="curve" smooth="yes"/>
      <point x="167" y="23"/>
      <point x="96" y="67"/>
      <point x="96" y="244" type="curve" smooth="yes"/>
      <point x="96" y="435"/>
      <point x="167" y="477"/>
      <point x="264" y="477" type="curve" smooth="yes"/>
      <point x="369" y="477"/>
      <point x="432" y="435"/>
      <point x="432" y="242" type="curve" smooth="yes"/>
      <point x="432" y="67"/>
      <point x="369" y="23"/>
    </contour>
  </outline>
</glyph>
<glyph name="zero.slash" format="2">
  <advance width="560"/>
  <outline>
    <contour>
      <point x="108" y="-65" type="line"/>
      <point x="146" y="-65" type="line"/>
      <point x="196" y="41" type="line"/>
      <point x="158" y="41" type="line"/>
    </contour>
    <contour>
      <point x="378" y="625" type="line"/>
      <point x="416" y="625" type="line"/>
      <point x="466" y="731" type="line"/>
      <point x="428" y="731" type="line"/>
    </contour>
    <contour>
      <point x="259" y="283" type="line"/>
      <point x="299" y="283" type="line"/>
      <point x="299" y="363" type="line"/>
      <point x="259" y="363" type="line"/>
    </contour>
    <component base="zero"/>
  </outline>
</glyph>
